<svg width="352" height="291" viewBox="0 0 352 291" fill="none" xmlns="http://www.w3.org/2000/svg">
<rect x="1" y="1" width="350" height="289" rx="29" fill="white"/>
<rect x="1" y="1" width="350" height="289" rx="29" stroke="#CFCFCF" stroke-width="2"/>
<rect x="12" y="239" width="40" height="40" rx="20" fill="white"/>
<path d="M40.6421 252C40.6421 251.172 39.9706 250.5 39.1421 250.5L25.6421 250.5C24.8137 250.5 24.1421 251.172 24.1421 252C24.1421 252.828 24.8137 253.5 25.6421 253.5H37.6421V265.5C37.6421 266.328 38.3137 267 39.1421 267C39.9706 267 40.6421 266.328 40.6421 265.5L40.6421 252ZM26.0607 267.203L40.2028 253.061L38.0815 250.939L23.9393 265.081L26.0607 267.203Z" fill="black"/>
<path d="M160.514 143.024V137.674C160.514 137.357 160.514 137.23 160.927 137.23C164.47 137.23 167.35 137.02 168.78 137.864C170.214 138.704 170.274 139.864 170.297 140.21C170.324 140.557 170.31 141.054 169.644 142.264C168.977 143.474 165.994 143.497 163.84 143.497H160.99C160.64 143.497 160.514 143.37 160.514 143.024ZM170.334 148.63C170.663 149.052 170.898 149.539 171.023 150.06C171.148 150.58 171.16 151.121 171.057 151.647C170.955 152.172 170.741 152.669 170.43 153.104C170.119 153.54 169.718 153.903 169.254 154.17C168.571 154.456 167.84 154.607 167.1 154.614H160.957C160.64 154.614 160.514 154.614 160.514 154.204V147.87C160.514 147.554 160.514 147.427 160.927 147.427H165.01C167.544 147.427 169.127 147.207 170.334 148.63Z" fill="black"/>
<path d="M192.63 145.696C192.46 145.296 192.202 144.938 191.876 144.651C191.549 144.364 191.162 144.154 190.743 144.036C189.906 143.808 189.03 143.76 188.172 143.895C187.315 144.03 186.496 144.345 185.77 144.82C185.045 145.551 184.577 146.497 184.436 147.516C184.436 147.873 184.436 147.94 184.86 147.94H192.76C193.15 147.94 193.15 147.94 193.116 147.45C193.078 146.837 192.915 146.24 192.63 145.696ZM192.63 145.696C192.46 145.296 192.199 144.938 191.872 144.651C191.546 144.364 191.162 144.154 190.743 144.036C189.906 143.808 189.026 143.76 188.169 143.895C187.312 144.03 186.496 144.345 185.77 144.82C185.045 145.551 184.574 146.497 184.433 147.516C184.433 147.873 184.433 147.94 184.856 147.94H192.76C193.15 147.94 193.15 147.94 193.116 147.45C193.078 146.837 192.908 146.24 192.623 145.696M196.333 114.333H157.333C153.885 114.333 150.579 115.703 148.141 118.141C145.703 120.579 144.333 123.885 144.333 127.333V166.333C144.333 169.781 145.703 173.087 148.141 175.525C150.579 177.963 153.885 179.333 157.333 179.333H196.333C199.781 179.333 203.087 177.963 205.525 175.525C207.963 173.087 209.333 169.781 209.333 166.333V127.333C209.333 123.885 207.963 120.579 205.525 118.141C203.087 115.703 199.781 114.333 196.333 114.333ZM183.593 135.033C183.593 134.776 183.593 134.676 183.886 134.676H194.416V137.41C194.416 137.41 194.426 137.603 194.253 137.603H184.05C183.593 137.603 183.593 137.603 183.593 137.15V135.033ZM173.843 158.923C169.843 161.1 163.12 160.223 155.156 160.223V133.28H167.863C171.113 133.28 174.98 134.093 176.02 137.536C176.56 139.04 176.527 140.69 175.927 142.172C175.328 143.653 174.204 144.861 172.77 145.566C174.092 146.055 175.246 146.913 176.095 148.038C176.945 149.162 177.455 150.507 177.564 151.912C177.673 153.317 177.378 154.724 176.713 155.967C176.047 157.209 175.04 158.235 173.81 158.923H173.843ZM198.056 151.253H185.056C184.7 151.253 184.373 151.446 184.436 151.903C184.826 153.82 185.703 155.836 187.69 156.13C188.739 156.44 189.861 156.391 190.88 155.991C191.898 155.59 192.753 154.862 193.31 153.92C193.31 153.92 193.473 153.723 193.57 153.723H197.796C197.796 153.723 198.056 153.723 197.99 153.95C197.547 155.213 196.887 156.39 196.04 157.426C194.91 158.505 193.547 159.308 192.056 159.775C190.565 160.241 188.987 160.358 187.444 160.117C185.901 159.875 184.434 159.281 183.158 158.381C181.881 157.481 180.829 156.299 180.083 154.926C179.622 154.012 179.336 153.019 179.24 152C178.66 149.438 179.103 146.752 180.475 144.512C181.846 142.273 184.038 140.657 186.583 140.01C193.96 138.416 198.64 143.486 198.64 150.636C198.651 150.72 198.642 150.805 198.615 150.885C198.588 150.964 198.543 151.037 198.483 151.097C198.424 151.156 198.351 151.201 198.271 151.228C198.192 151.256 198.107 151.264 198.023 151.253H198.056ZM190.776 144.036C189.939 143.809 189.063 143.761 188.206 143.896C187.35 144.03 186.583 144.193 185.803 144.82C185.023 145.443 184.61 146.496 184.47 147.516C184.47 147.873 184.47 147.94 184.893 147.94H192.76C193.15 147.94 193.15 147.94 193.116 147.45C193.078 146.837 192.915 146.24 192.63 145.696C192.46 145.296 192.202 144.938 191.876 144.651C191.549 144.364 191.162 144.154 190.743 144.036H190.776Z" fill="black"/>
</svg>
