<svg width="982" height="124" viewBox="0 0 982 124" fill="none" xmlns="http://www.w3.org/2000/svg">
<rect x="170.154" y="39.1364" width="30.5771" height="84.0707" fill="#459F86"/>
<path d="M31.6664 92.3899V6.42968L6.88262 24.8806C2.62979 28.0467 0.125 33.0283 0.125 38.3203V106.227C0.125 115.491 7.65651 123 16.9471 123H65.8416C69.3265 123 72.7255 121.921 75.5687 119.912L114.515 92.3899H31.6664Z" fill="#FEFEFE"/>
<path d="M67.1996 0H39.8008V83.9611H119.942V0H92.5436V56.6567H67.1996V0Z" fill="#459F86"/>
<path d="M130.479 0H161.302H214.777C229.453 0 241.35 11.8435 241.35 26.4533V87.5427C241.35 90.8452 239.842 93.9686 237.251 96.0316L210.409 117.409V29.7146H161.302V56.6455C161.302 59.899 159.838 62.9815 157.313 65.0465L130.479 83.7251V0Z" fill="#FEFEFE"/>
<path d="M322.523 106.501C297.298 106.501 281.503 89.625 281.503 61.6377C281.503 33.7105 297.419 16.834 322.523 16.834C343.363 16.834 359.219 30.0469 360.6 49.4458H342.943C341.261 38.8154 333.093 31.8486 322.523 31.8486C308.83 31.8486 300.001 43.3198 300.001 61.5776C300.001 80.0757 308.71 91.4868 322.583 91.4868C333.334 91.4868 341.081 85.1807 343.003 74.9106H360.66C358.618 94.2495 343.784 106.501 322.523 106.501ZM407.299 16.834C432.944 16.834 449.1 34.0708 449.1 61.6978C449.1 89.2646 432.944 106.501 407.299 106.501C381.594 106.501 365.499 89.2646 365.499 61.6978C365.499 34.0708 381.594 16.834 407.299 16.834ZM407.299 31.9688C393.125 31.9688 383.997 43.5 383.997 61.6978C383.997 79.8355 393.065 91.3066 407.299 91.3066C421.473 91.3066 430.542 79.8355 430.542 61.6978C430.542 43.5 421.473 31.9688 407.299 31.9688ZM548.891 105H532.735V46.5029H532.255L508.712 104.159H497.301L473.758 46.5029H473.277V105H457.122V18.3355H478.142L502.766 79.7754H503.247L527.871 18.3355H548.891V105ZM651.385 105H635.229V46.5029H634.748L611.205 104.159H599.794L576.251 46.5029H575.771V105H559.615V18.3355H580.636L605.26 79.7754H605.74L630.364 18.3355H651.385V105ZM719.525 89.9854V105H662.109V18.3355H719.525V33.29H680.246V54.1904H717.303V68.124H680.246V89.9854H719.525ZM747.065 32.5093V60.1362H762.68C771.809 60.1362 777.155 54.9111 777.155 46.3228C777.155 37.9146 771.509 32.5093 762.5 32.5093H747.065ZM747.065 73.2891V105H728.927V18.3355H764.422C784.362 18.3355 795.773 28.8457 795.773 45.9624C795.773 57.0732 790.007 66.6826 780.037 70.5864L798.295 105H777.755L761.599 73.2891H747.065ZM842.352 106.501C817.127 106.501 801.332 89.625 801.332 61.6377C801.332 33.7105 817.247 16.834 842.352 16.834C863.192 16.834 879.048 30.0469 880.429 49.4458H862.772C861.09 38.8154 852.922 31.8486 842.352 31.8486C828.658 31.8486 819.83 43.3198 819.83 61.5776C819.83 80.0757 828.538 91.4868 842.412 91.4868C853.162 91.4868 860.91 85.1807 862.832 74.9106H880.489C878.447 94.2495 863.612 106.501 842.352 106.501ZM945.446 89.9854V105H888.03V18.3355H945.446V33.29H906.168V54.1904H943.224V68.124H906.168V89.9854H945.446ZM964.758 105.721C959.353 105.721 955.089 101.396 955.089 96.0513C955.089 90.646 959.353 86.3818 964.758 86.3818C970.104 86.3818 974.428 90.646 974.428 96.0513C974.428 101.396 970.104 105.721 964.758 105.721Z" fill="#EFEFEF"/>
</svg>
