<svg width="24" height="25" viewBox="0 0 24 25" fill="none" xmlns="http://www.w3.org/2000/svg">
<path d="M15.24 2.5H11.346C9.582 2.5 8.184 2.5 7.091 2.648C5.965 2.8 5.054 3.12 4.336 3.841C3.617 4.562 3.298 5.477 3.147 6.607C3 7.705 3 9.108 3 10.879V16.717C3 18.225 3.92 19.517 5.227 20.059C5.16 19.149 5.16 17.874 5.16 16.812V11.802C5.16 10.521 5.16 9.416 5.278 8.532C5.405 7.584 5.691 6.676 6.425 5.939C7.159 5.202 8.064 4.915 9.008 4.787C9.888 4.669 10.988 4.669 12.265 4.669H15.335C16.611 4.669 17.709 4.669 18.59 4.787C18.3261 4.11329 17.8653 3.53474 17.2678 3.12678C16.6702 2.71883 15.9635 2.50041 15.24 2.5Z" fill="#212121"/>
<path d="M6.59961 11.897C6.59961 9.171 6.59961 7.808 7.44361 6.961C8.28661 6.114 9.64361 6.114 12.3596 6.114H15.2396C17.9546 6.114 19.3126 6.114 20.1566 6.961C21.0006 7.808 20.9996 9.171 20.9996 11.897V16.717C20.9996 19.443 20.9996 20.806 20.1566 21.653C19.3126 22.5 17.9546 22.5 15.2396 22.5H12.3596C9.64461 22.5 8.28661 22.5 7.44361 21.653C6.59961 20.806 6.59961 19.443 6.59961 16.717V11.897Z" fill="#212121"/>
</svg>
