<svg width="750" height="522" viewBox="0 0 750 522" fill="none" xmlns="http://www.w3.org/2000/svg">
<rect x="0.5" y="0.5" width="749" height="521" rx="29.5" stroke="#E3E3E3"/>
<rect x="69.5" y="58.5" width="611" height="405.014" rx="19.9284" fill="white"/>
<rect x="69.5" y="58.5" width="611" height="405.014" rx="19.9284" stroke="#E8E8E8"/>
<rect x="276.688" y="393.366" width="177.046" height="42.5591" rx="10.2142" fill="#0C0C20"/>
<path d="M332.237 414.771C332.237 415.588 332.407 416.32 332.747 416.967C333.099 417.602 333.582 418.102 334.194 418.465C334.807 418.828 335.505 419.01 336.288 419.01C337.083 419.01 337.781 418.828 338.382 418.465C338.995 418.102 339.472 417.602 339.812 416.967C340.164 416.32 340.34 415.588 340.34 414.771C340.34 413.954 340.17 413.227 339.829 412.592C339.489 411.945 339.012 411.44 338.399 411.077C337.798 410.713 337.094 410.532 336.288 410.532C335.505 410.532 334.807 410.713 334.194 411.077C333.582 411.44 333.099 411.945 332.747 412.592C332.407 413.227 332.237 413.954 332.237 414.771ZM330.109 414.771C330.109 413.874 330.262 413.051 330.568 412.302C330.875 411.553 331.306 410.906 331.862 410.362C332.43 409.805 333.088 409.374 333.837 409.068C334.597 408.761 335.415 408.608 336.288 408.608C337.185 408.608 338.008 408.761 338.757 409.068C339.506 409.374 340.158 409.805 340.715 410.362C341.282 410.906 341.719 411.553 342.025 412.302C342.332 413.051 342.485 413.874 342.485 414.771C342.485 415.656 342.332 416.479 342.025 417.239C341.719 418 341.288 418.658 340.732 419.214C340.175 419.77 339.517 420.207 338.757 420.525C338.008 420.831 337.185 420.984 336.288 420.984C335.403 420.984 334.58 420.831 333.82 420.525C333.06 420.207 332.401 419.77 331.845 419.214C331.3 418.658 330.875 418 330.568 417.239C330.262 416.479 330.109 415.656 330.109 414.771ZM343.196 412.898H348.15V414.515H343.196V412.898ZM344.779 413.239H346.584V420.729H344.779V413.239ZM356.862 420.729L355.67 414.856L356.641 412.302L358.82 420.729H356.862ZM353.032 419.129L356.641 412.302L356.811 415.315L353.543 421.257L353.032 419.129ZM353.543 421.257L350.308 415.315L350.478 412.302L354.053 419.129L353.543 421.257ZM348.316 420.729L350.478 412.302L351.466 414.856L350.274 420.729H348.316ZM360.572 417.239V415.979H365.492C365.447 415.605 365.345 415.281 365.186 415.009C365.038 414.725 364.828 414.51 364.556 414.362C364.284 414.203 363.949 414.124 363.552 414.124C363.143 414.124 362.774 414.215 362.445 414.396C362.116 414.566 361.855 414.822 361.662 415.162C361.469 415.491 361.373 415.883 361.373 416.337L361.339 416.814C361.339 417.392 361.429 417.875 361.611 418.261C361.804 418.635 362.065 418.919 362.394 419.112C362.734 419.293 363.126 419.384 363.569 419.384C363.932 419.384 364.25 419.333 364.522 419.231C364.806 419.129 365.055 418.987 365.271 418.805C365.487 418.612 365.668 418.391 365.816 418.141L367.399 418.788C367.138 419.208 366.837 419.577 366.497 419.895C366.168 420.213 365.759 420.462 365.271 420.644C364.794 420.814 364.199 420.899 363.484 420.899C362.678 420.899 361.974 420.723 361.373 420.372C360.771 420.02 360.306 419.537 359.977 418.924C359.648 418.3 359.483 417.597 359.483 416.814C359.483 416.666 359.489 416.524 359.5 416.388C359.511 416.252 359.528 416.116 359.551 415.979C359.665 415.333 359.892 414.765 360.232 414.277C360.584 413.789 361.043 413.409 361.611 413.136C362.178 412.864 362.831 412.728 363.569 412.728C364.374 412.728 365.067 412.892 365.646 413.222C366.236 413.539 366.69 413.999 367.007 414.6C367.325 415.191 367.484 415.9 367.484 416.728C367.484 416.797 367.484 416.876 367.484 416.967C367.484 417.046 367.473 417.137 367.45 417.239H360.572ZM370.056 417.358V415.843H376.048V417.358H370.056ZM375.061 412.898H376.865V420.729H375.061V412.898ZM369.256 412.898H371.06V420.729H369.256V412.898ZM386.313 414.6L379.282 421.325L379.367 419.027L386.398 412.302L386.313 414.6ZM381.086 412.898V419.248L379.282 421.325V412.898H381.086ZM386.398 412.302V420.729H384.593V414.379L386.398 412.302ZM387.733 412.898H392.687V414.515H387.733V412.898ZM389.317 413.239H391.121V420.729H389.317V413.239ZM393.977 412.898H395.833V420.729H393.977V412.898ZM395.271 417.12V415.741H397.705C398.511 415.741 399.186 415.94 399.731 416.337C400.287 416.723 400.565 417.336 400.565 418.175C400.565 418.732 400.441 419.203 400.191 419.588C399.941 419.963 399.601 420.247 399.169 420.44C398.738 420.633 398.25 420.729 397.705 420.729H395.271V419.214H397.518C397.791 419.214 398.018 419.174 398.199 419.095C398.392 419.015 398.534 418.896 398.625 418.737C398.727 418.578 398.778 418.391 398.778 418.175C398.778 417.835 398.67 417.574 398.454 417.392C398.25 417.211 397.938 417.12 397.518 417.12H395.271Z" fill="white"/>
<rect x="470.758" y="393.366" width="177.046" height="42.5591" rx="10.2142" fill="#52B69A"/>
<path d="M521.233 414.771C521.233 415.611 521.42 416.348 521.795 416.984C522.18 417.619 522.68 418.113 523.293 418.465C523.917 418.805 524.592 418.976 525.318 418.976C525.886 418.976 526.397 418.902 526.851 418.754C527.304 418.607 527.713 418.408 528.076 418.158C528.451 417.897 528.774 417.608 529.047 417.29V419.674C528.547 420.082 528.008 420.394 527.429 420.61C526.851 420.825 526.124 420.933 525.25 420.933C524.376 420.933 523.559 420.786 522.799 420.491C522.05 420.196 521.397 419.77 520.841 419.214C520.285 418.658 519.848 418.005 519.53 417.256C519.224 416.496 519.071 415.667 519.071 414.771C519.071 413.874 519.224 413.051 519.53 412.302C519.848 411.542 520.285 410.884 520.841 410.328C521.397 409.771 522.05 409.346 522.799 409.051C523.559 408.756 524.376 408.608 525.25 408.608C526.124 408.608 526.851 408.716 527.429 408.932C528.008 409.147 528.547 409.459 529.047 409.868V412.251C528.774 411.933 528.451 411.65 528.076 411.4C527.713 411.139 527.304 410.935 526.851 410.787C526.397 410.64 525.886 410.566 525.318 410.566C524.592 410.566 523.917 410.742 523.293 411.094C522.68 411.434 522.18 411.922 521.795 412.558C521.42 413.182 521.233 413.92 521.233 414.771ZM530.773 416.814C530.773 416.008 530.954 415.298 531.318 414.686C531.692 414.073 532.197 413.596 532.833 413.256C533.468 412.904 534.189 412.728 534.995 412.728C535.801 412.728 536.516 412.904 537.14 413.256C537.775 413.596 538.28 414.073 538.655 414.686C539.029 415.298 539.217 416.008 539.217 416.814C539.217 417.608 539.029 418.317 538.655 418.942C538.28 419.554 537.775 420.037 537.14 420.389C536.516 420.729 535.801 420.899 534.995 420.899C534.189 420.899 533.468 420.729 532.833 420.389C532.197 420.037 531.692 419.554 531.318 418.942C530.954 418.317 530.773 417.608 530.773 416.814ZM532.663 416.814C532.663 417.302 532.765 417.733 532.969 418.107C533.173 418.471 533.451 418.76 533.803 418.976C534.155 419.18 534.552 419.282 534.995 419.282C535.426 419.282 535.818 419.18 536.169 418.976C536.533 418.76 536.816 418.471 537.021 418.107C537.225 417.733 537.327 417.302 537.327 416.814C537.327 416.326 537.225 415.894 537.021 415.52C536.816 415.145 536.533 414.856 536.169 414.652C535.818 414.447 535.426 414.345 534.995 414.345C534.552 414.345 534.155 414.447 533.803 414.652C533.451 414.856 533.173 415.145 532.969 415.52C532.765 415.894 532.663 416.326 532.663 416.814ZM545.223 412.898H547.283L544.474 416.694L547.453 420.729H545.393L543.504 418.039L541.648 420.729H539.537L542.533 416.694L539.707 412.898H541.818L543.504 415.35L545.223 412.898ZM550.413 424.474H548.557V412.898H550.413V424.474ZM556.899 416.814C556.899 417.676 556.723 418.419 556.371 419.044C556.019 419.657 555.554 420.128 554.975 420.457C554.396 420.774 553.766 420.933 553.085 420.933C552.416 420.933 551.831 420.769 551.332 420.44C550.844 420.099 550.464 419.622 550.191 419.01C549.93 418.385 549.8 417.653 549.8 416.814C549.8 415.962 549.93 415.23 550.191 414.618C550.464 414.005 550.844 413.534 551.332 413.205C551.831 412.864 552.416 412.694 553.085 412.694C553.766 412.694 554.396 412.858 554.975 413.188C555.554 413.505 556.019 413.971 556.371 414.583C556.723 415.196 556.899 415.94 556.899 416.814ZM554.992 416.814C554.992 416.292 554.884 415.849 554.668 415.486C554.453 415.111 554.163 414.833 553.8 414.652C553.448 414.459 553.057 414.362 552.626 414.362C552.274 414.362 551.928 414.459 551.587 414.652C551.247 414.833 550.963 415.106 550.736 415.469C550.52 415.832 550.413 416.28 550.413 416.814C550.413 417.347 550.52 417.795 550.736 418.158C550.963 418.522 551.247 418.8 551.587 418.993C551.928 419.174 552.274 419.265 552.626 419.265C553.057 419.265 553.448 419.174 553.8 418.993C554.163 418.8 554.453 418.522 554.668 418.158C554.884 417.784 554.992 417.336 554.992 416.814ZM559.807 418.414C559.807 418.652 559.87 418.851 559.995 419.01C560.131 419.169 560.307 419.293 560.522 419.384C560.738 419.464 560.982 419.503 561.254 419.503C561.652 419.503 562.009 419.441 562.327 419.316C562.645 419.191 562.894 418.993 563.076 418.72C563.258 418.448 563.348 418.085 563.348 417.631L563.621 418.516C563.621 419.015 563.49 419.447 563.229 419.81C562.968 420.162 562.616 420.434 562.174 420.627C561.731 420.808 561.237 420.899 560.693 420.899C560.182 420.899 559.717 420.808 559.297 420.627C558.888 420.445 558.559 420.179 558.309 419.827C558.071 419.464 557.952 419.015 557.952 418.482C557.952 417.948 558.088 417.489 558.36 417.103C558.633 416.717 559.019 416.422 559.518 416.218C560.029 416.013 560.625 415.911 561.305 415.911C561.759 415.911 562.162 415.968 562.514 416.082C562.877 416.195 563.178 416.326 563.416 416.473C563.655 416.621 563.819 416.751 563.91 416.865V417.835C563.558 417.574 563.201 417.387 562.838 417.273C562.474 417.148 562.054 417.086 561.578 417.086C561.192 417.086 560.863 417.143 560.59 417.256C560.329 417.358 560.131 417.512 559.995 417.716C559.87 417.909 559.807 418.141 559.807 418.414ZM559.399 414.958L558.667 413.647C559.019 413.432 559.467 413.222 560.012 413.017C560.556 412.813 561.181 412.711 561.884 412.711C562.531 412.711 563.099 412.807 563.587 413C564.075 413.193 564.455 413.471 564.727 413.834C565.011 414.186 565.153 414.623 565.153 415.145V420.729H563.348V415.35C563.348 414.986 563.195 414.708 562.889 414.515C562.594 414.311 562.23 414.209 561.799 414.209C561.425 414.209 561.078 414.254 560.761 414.345C560.443 414.436 560.165 414.544 559.927 414.669C559.7 414.782 559.524 414.879 559.399 414.958ZM568.111 417.358V415.843H574.104V417.358H568.111ZM573.116 412.898H574.921V420.729H573.116V412.898ZM567.311 412.898H569.116V420.729H567.311V412.898ZM584.368 414.6L577.337 421.325L577.423 419.027L584.453 412.302L584.368 414.6ZM579.142 412.898V419.248L577.337 421.325V412.898H579.142ZM584.453 412.302V420.729H582.649V414.379L584.453 412.302ZM585.789 412.898H590.743V414.515H585.789V412.898ZM587.372 413.239H589.177V420.729H587.372V413.239ZM592.033 412.898H593.888V420.729H592.033V412.898ZM593.327 417.12V415.741H595.761C596.567 415.741 597.242 415.94 597.787 416.337C598.343 416.723 598.621 417.336 598.621 418.175C598.621 418.732 598.496 419.203 598.246 419.588C597.997 419.963 597.656 420.247 597.225 420.44C596.794 420.633 596.306 420.729 595.761 420.729H593.327V419.214H595.574C595.846 419.214 596.073 419.174 596.255 419.095C596.448 419.015 596.59 418.896 596.68 418.737C596.782 418.578 596.834 418.391 596.834 418.175C596.834 417.835 596.726 417.574 596.51 417.392C596.306 417.211 595.994 417.12 595.574 417.12H593.327Z" fill="white"/>
<path d="M103.252 329.971L100.273 337.921H98.0258L103.269 325.92L108.495 337.921H106.248L103.252 329.971ZM107.695 338.432H98.8259V340.305H96.9192V336.628H109.602V340.305H107.695V338.432ZM112.038 334.942V333.683H116.957C116.912 333.308 116.81 332.985 116.651 332.712C116.503 332.428 116.293 332.213 116.021 332.065C115.749 331.906 115.414 331.827 115.017 331.827C114.608 331.827 114.239 331.918 113.91 332.099C113.581 332.27 113.32 332.525 113.127 332.865C112.934 333.195 112.838 333.586 112.838 334.04L112.804 334.517C112.804 335.095 112.894 335.578 113.076 335.964C113.269 336.338 113.53 336.622 113.859 336.815C114.2 336.996 114.591 337.087 115.034 337.087C115.397 337.087 115.715 337.036 115.987 336.934C116.271 336.832 116.52 336.69 116.736 336.508C116.952 336.316 117.133 336.094 117.281 335.845L118.864 336.491C118.603 336.911 118.302 337.28 117.962 337.598C117.633 337.916 117.224 338.165 116.736 338.347C116.259 338.517 115.664 338.602 114.949 338.602C114.143 338.602 113.439 338.426 112.838 338.075C112.236 337.723 111.771 337.24 111.442 336.628C111.113 336.003 110.948 335.3 110.948 334.517C110.948 334.369 110.954 334.227 110.965 334.091C110.976 333.955 110.993 333.819 111.016 333.683C111.13 333.036 111.357 332.468 111.697 331.98C112.049 331.492 112.509 331.112 113.076 330.84C113.643 330.567 114.296 330.431 115.034 330.431C115.839 330.431 116.532 330.596 117.111 330.925C117.701 331.242 118.155 331.702 118.472 332.304C118.79 332.894 118.949 333.603 118.949 334.432C118.949 334.5 118.949 334.579 118.949 334.67C118.949 334.749 118.938 334.84 118.915 334.942H112.038ZM121.521 335.061V333.546H127.513V335.061H121.521ZM126.526 330.601H128.33V338.432H126.526V330.601ZM120.721 330.601H122.525V338.432H120.721V330.601ZM130.713 330.601H132.568V338.432H130.713V330.601ZM132.007 334.823V333.444H134.441C135.247 333.444 135.922 333.643 136.467 334.04C137.023 334.426 137.301 335.039 137.301 335.879C137.301 336.435 137.176 336.906 136.927 337.292C136.677 337.666 136.336 337.95 135.905 338.143C135.474 338.336 134.986 338.432 134.441 338.432H132.007V336.917H134.254C134.526 336.917 134.753 336.877 134.935 336.798C135.128 336.718 135.27 336.599 135.36 336.44C135.462 336.281 135.514 336.094 135.514 335.879C135.514 335.538 135.406 335.277 135.19 335.095C134.986 334.914 134.674 334.823 134.254 334.823H132.007ZM146.215 342.177H144.359V330.601H146.215V342.177ZM152.701 334.517C152.701 335.379 152.525 336.123 152.173 336.747C151.821 337.36 151.356 337.831 150.777 338.16C150.198 338.478 149.569 338.636 148.888 338.636C148.218 338.636 147.634 338.472 147.134 338.143C146.646 337.802 146.266 337.326 145.994 336.713C145.733 336.089 145.602 335.357 145.602 334.517C145.602 333.666 145.733 332.933 145.994 332.321C146.266 331.708 146.646 331.237 147.134 330.908C147.634 330.567 148.218 330.397 148.888 330.397C149.569 330.397 150.198 330.562 150.777 330.891C151.356 331.208 151.821 331.674 152.173 332.287C152.525 332.899 152.701 333.643 152.701 334.517ZM150.794 334.517C150.794 333.995 150.686 333.552 150.471 333.189C150.255 332.814 149.966 332.536 149.603 332.355C149.251 332.162 148.859 332.065 148.428 332.065C148.076 332.065 147.73 332.162 147.39 332.355C147.049 332.536 146.765 332.809 146.538 333.172C146.323 333.535 146.215 333.983 146.215 334.517C146.215 335.05 146.323 335.498 146.538 335.862C146.765 336.225 147.049 336.503 147.39 336.696C147.73 336.877 148.076 336.968 148.428 336.968C148.859 336.968 149.251 336.877 149.603 336.696C149.966 336.503 150.255 336.225 150.471 335.862C150.686 335.487 150.794 335.039 150.794 334.517ZM153.856 334.517C153.856 333.711 154.038 333.002 154.401 332.389C154.776 331.776 155.281 331.299 155.916 330.959C156.552 330.607 157.272 330.431 158.078 330.431C158.884 330.431 159.599 330.607 160.223 330.959C160.859 331.299 161.364 331.776 161.738 332.389C162.113 333.002 162.3 333.711 162.3 334.517C162.3 335.311 162.113 336.02 161.738 336.645C161.364 337.257 160.859 337.74 160.223 338.092C159.599 338.432 158.884 338.602 158.078 338.602C157.272 338.602 156.552 338.432 155.916 338.092C155.281 337.74 154.776 337.257 154.401 336.645C154.038 336.02 153.856 335.311 153.856 334.517ZM155.746 334.517C155.746 335.005 155.848 335.436 156.052 335.81C156.257 336.174 156.535 336.463 156.886 336.679C157.238 336.883 157.636 336.985 158.078 336.985C158.509 336.985 158.901 336.883 159.253 336.679C159.616 336.463 159.9 336.174 160.104 335.81C160.308 335.436 160.41 335.005 160.41 334.517C160.41 334.029 160.308 333.597 160.104 333.223C159.9 332.848 159.616 332.559 159.253 332.355C158.901 332.15 158.509 332.048 158.078 332.048C157.636 332.048 157.238 332.15 156.886 332.355C156.535 332.559 156.257 332.848 156.052 333.223C155.848 333.597 155.746 334.029 155.746 334.517ZM172.954 330.601H175.167L171.677 333.972L175.507 338.432H173.294L169.549 333.836L172.954 330.601ZM169.941 330.601V338.432H168.187V330.601H169.941ZM165.174 330.601L168.579 333.836L164.834 338.432H162.621L166.451 333.972L162.961 330.601H165.174ZM181.723 333.24L179.595 337.921L177.688 337.717L181.723 330.005L185.758 337.717L183.851 337.921L181.723 333.24ZM184.957 338.432H178.574V339.964H176.701V336.866H186.745V339.964H184.957V338.432ZM189.176 334.942V333.683H194.096C194.05 333.308 193.948 332.985 193.789 332.712C193.642 332.428 193.432 332.213 193.159 332.065C192.887 331.906 192.552 331.827 192.155 331.827C191.747 331.827 191.378 331.918 191.049 332.099C190.719 332.27 190.458 332.525 190.265 332.865C190.073 333.195 189.976 333.586 189.976 334.04L189.942 334.517C189.942 335.095 190.033 335.578 190.214 335.964C190.407 336.338 190.668 336.622 190.997 336.815C191.338 336.996 191.729 337.087 192.172 337.087C192.535 337.087 192.853 337.036 193.125 336.934C193.409 336.832 193.659 336.69 193.874 336.508C194.09 336.316 194.272 336.094 194.419 335.845L196.002 336.491C195.741 336.911 195.441 337.28 195.1 337.598C194.771 337.916 194.362 338.165 193.874 338.347C193.398 338.517 192.802 338.602 192.087 338.602C191.281 338.602 190.578 338.426 189.976 338.075C189.375 337.723 188.909 337.24 188.58 336.628C188.251 336.003 188.086 335.3 188.086 334.517C188.086 334.369 188.092 334.227 188.103 334.091C188.115 333.955 188.132 333.819 188.155 333.683C188.268 333.036 188.495 332.468 188.835 331.98C189.187 331.492 189.647 331.112 190.214 330.84C190.782 330.567 191.434 330.431 192.172 330.431C192.978 330.431 193.67 330.596 194.249 330.925C194.839 331.242 195.293 331.702 195.611 332.304C195.929 332.894 196.088 333.603 196.088 334.432C196.088 334.5 196.088 334.579 196.088 334.67C196.088 334.749 196.076 334.84 196.053 334.942H189.176ZM198.659 335.061V333.546H204.651V335.061H198.659ZM203.664 330.601H205.469V338.432H203.664V330.601ZM197.859 330.601H199.664V338.432H197.859V330.601ZM214.916 332.304L207.885 339.028L207.97 336.73L215.001 330.005L214.916 332.304ZM209.69 330.601V336.951L207.885 339.028V330.601H209.69ZM215.001 330.005V338.432H213.197V332.082L215.001 330.005ZM217.92 334.942V333.683H222.84C222.794 333.308 222.692 332.985 222.533 332.712C222.386 332.428 222.176 332.213 221.903 332.065C221.631 331.906 221.296 331.827 220.899 331.827C220.491 331.827 220.122 331.918 219.793 332.099C219.463 332.27 219.202 332.525 219.009 332.865C218.817 333.195 218.72 333.586 218.72 334.04L218.686 334.517C218.686 335.095 218.777 335.578 218.958 335.964C219.151 336.338 219.412 336.622 219.741 336.815C220.082 336.996 220.474 337.087 220.916 337.087C221.279 337.087 221.597 337.036 221.869 336.934C222.153 336.832 222.403 336.69 222.618 336.508C222.834 336.316 223.016 336.094 223.163 335.845L224.746 336.491C224.485 336.911 224.185 337.28 223.844 337.598C223.515 337.916 223.106 338.165 222.618 338.347C222.142 338.517 221.546 338.602 220.831 338.602C220.025 338.602 219.322 338.426 218.72 338.075C218.119 337.723 217.653 337.24 217.324 336.628C216.995 336.003 216.83 335.3 216.83 334.517C216.83 334.369 216.836 334.227 216.847 334.091C216.859 333.955 216.876 333.819 216.899 333.683C217.012 333.036 217.239 332.468 217.579 331.98C217.931 331.492 218.391 331.112 218.958 330.84C219.526 330.567 220.178 330.431 220.916 330.431C221.722 330.431 222.414 330.596 222.993 330.925C223.583 331.242 224.037 331.702 224.355 332.304C224.673 332.894 224.832 333.603 224.832 334.432C224.832 334.5 224.832 334.579 224.832 334.67C224.832 334.749 224.82 334.84 224.798 334.942H217.92Z" fill="#0C0C20"/>
<rect x="246.667" y="311.652" width="407.716" height="42.5591" rx="10.2142" fill="#F7FAFC"/>
<path d="M273.789 333.166C273.789 333.647 273.835 334.087 273.926 334.487C274.016 334.877 274.148 335.217 274.32 335.508C274.493 335.789 274.697 336.007 274.933 336.162C275.169 336.316 275.433 336.393 275.723 336.393C276.023 336.393 276.291 336.316 276.527 336.162C276.763 336.007 276.967 335.789 277.14 335.508C277.312 335.217 277.444 334.877 277.535 334.487C277.625 334.087 277.671 333.647 277.671 333.166C277.671 332.684 277.625 332.249 277.535 331.858C277.444 331.459 277.312 331.118 277.14 330.837C276.967 330.546 276.763 330.324 276.527 330.169C276.291 330.015 276.023 329.938 275.723 329.938C275.433 329.938 275.169 330.015 274.933 330.169C274.697 330.324 274.493 330.546 274.32 330.837C274.148 331.118 274.016 331.459 273.926 331.858C273.835 332.249 273.789 332.684 273.789 333.166ZM271.896 333.166C271.896 332.158 272.055 331.286 272.373 330.551C272.7 329.815 273.149 329.248 273.721 328.848C274.302 328.44 274.97 328.235 275.723 328.235C276.504 328.235 277.18 328.44 277.752 328.848C278.324 329.248 278.769 329.815 279.087 330.551C279.405 331.286 279.564 332.158 279.564 333.166C279.564 334.173 279.405 335.045 279.087 335.78C278.769 336.516 278.324 337.088 277.752 337.496C277.18 337.896 276.504 338.096 275.723 338.096C274.97 338.096 274.302 337.896 273.721 337.496C273.149 337.088 272.7 336.516 272.373 335.78C272.055 335.045 271.896 334.173 271.896 333.166ZM282.541 333.166C282.541 333.647 282.586 334.087 282.677 334.487C282.768 334.877 282.899 335.217 283.072 335.508C283.244 335.789 283.448 336.007 283.685 336.162C283.921 336.316 284.184 336.393 284.474 336.393C284.774 336.393 285.042 336.316 285.278 336.162C285.514 336.007 285.718 335.789 285.891 335.508C286.063 335.217 286.195 334.877 286.286 334.487C286.377 334.087 286.422 333.647 286.422 333.166C286.422 332.684 286.377 332.249 286.286 331.858C286.195 331.459 286.063 331.118 285.891 330.837C285.718 330.546 285.514 330.324 285.278 330.169C285.042 330.015 284.774 329.938 284.474 329.938C284.184 329.938 283.921 330.015 283.685 330.169C283.448 330.324 283.244 330.546 283.072 330.837C282.899 331.118 282.768 331.459 282.677 331.858C282.586 332.249 282.541 332.684 282.541 333.166ZM280.648 333.166C280.648 332.158 280.806 331.286 281.124 330.551C281.451 329.815 281.9 329.248 282.472 328.848C283.054 328.44 283.721 328.235 284.474 328.235C285.255 328.235 285.932 328.44 286.504 328.848C287.076 329.248 287.521 329.815 287.838 330.551C288.156 331.286 288.315 332.158 288.315 333.166C288.315 334.173 288.156 335.045 287.838 335.78C287.521 336.516 287.076 337.088 286.504 337.496C285.932 337.896 285.255 338.096 284.474 338.096C283.721 338.096 283.054 337.896 282.472 337.496C281.9 337.088 281.451 336.516 281.124 335.78C280.806 335.045 280.648 334.173 280.648 333.166ZM289.889 337.129C289.889 336.82 289.993 336.561 290.202 336.352C290.42 336.134 290.688 336.025 291.006 336.025C291.333 336.025 291.6 336.134 291.809 336.352C292.018 336.561 292.123 336.82 292.123 337.129C292.123 337.419 292.018 337.673 291.809 337.891C291.6 338.109 291.333 338.218 291.006 338.218C290.688 338.218 290.42 338.109 290.202 337.891C289.993 337.673 289.889 337.419 289.889 337.129ZM295.588 333.166C295.588 333.647 295.633 334.087 295.724 334.487C295.815 334.877 295.946 335.217 296.119 335.508C296.291 335.789 296.496 336.007 296.732 336.162C296.968 336.316 297.231 336.393 297.521 336.393C297.821 336.393 298.089 336.316 298.325 336.162C298.561 336.007 298.765 335.789 298.938 335.508C299.11 335.217 299.242 334.877 299.333 334.487C299.424 334.087 299.469 333.647 299.469 333.166C299.469 332.684 299.424 332.249 299.333 331.858C299.242 331.459 299.11 331.118 298.938 330.837C298.765 330.546 298.561 330.324 298.325 330.169C298.089 330.015 297.821 329.938 297.521 329.938C297.231 329.938 296.968 330.015 296.732 330.169C296.496 330.324 296.291 330.546 296.119 330.837C295.946 331.118 295.815 331.459 295.724 331.858C295.633 332.249 295.588 332.684 295.588 333.166ZM293.695 333.166C293.695 332.158 293.853 331.286 294.171 330.551C294.498 329.815 294.948 329.248 295.519 328.848C296.101 328.44 296.768 328.235 297.521 328.235C298.302 328.235 298.979 328.44 299.551 328.848C300.123 329.248 300.568 329.815 300.885 330.551C301.203 331.286 301.362 332.158 301.362 333.166C301.362 334.173 301.203 335.045 300.885 335.78C300.568 336.516 300.123 337.088 299.551 337.496C298.979 337.896 298.302 338.096 297.521 338.096C296.768 338.096 296.101 337.896 295.519 337.496C294.948 337.088 294.498 336.516 294.171 335.78C293.853 335.045 293.695 334.173 293.695 333.166ZM304.339 333.166C304.339 333.647 304.384 334.087 304.475 334.487C304.566 334.877 304.697 335.217 304.87 335.508C305.042 335.789 305.247 336.007 305.483 336.162C305.719 336.316 305.982 336.393 306.273 336.393C306.572 336.393 306.84 336.316 307.076 336.162C307.312 336.007 307.517 335.789 307.689 335.508C307.862 335.217 307.993 334.877 308.084 334.487C308.175 334.087 308.22 333.647 308.22 333.166C308.22 332.684 308.175 332.249 308.084 331.858C307.993 331.459 307.862 331.118 307.689 330.837C307.517 330.546 307.312 330.324 307.076 330.169C306.84 330.015 306.572 329.938 306.273 329.938C305.982 329.938 305.719 330.015 305.483 330.169C305.247 330.324 305.042 330.546 304.87 330.837C304.697 331.118 304.566 331.459 304.475 331.858C304.384 332.249 304.339 332.684 304.339 333.166ZM302.446 333.166C302.446 332.158 302.605 331.286 302.922 330.551C303.249 329.815 303.699 329.248 304.271 328.848C304.852 328.44 305.519 328.235 306.273 328.235C307.054 328.235 307.73 328.44 308.302 328.848C308.874 329.248 309.319 329.815 309.637 330.551C309.954 331.286 310.113 332.158 310.113 333.166C310.113 334.173 309.954 335.045 309.637 335.78C309.319 336.516 308.874 337.088 308.302 337.496C307.73 337.896 307.054 338.096 306.273 338.096C305.519 338.096 304.852 337.896 304.271 337.496C303.699 337.088 303.249 336.516 302.922 335.78C302.605 335.045 302.446 334.173 302.446 333.166ZM311.687 337.129C311.687 336.82 311.792 336.561 312.001 336.352C312.218 336.134 312.486 336.025 312.804 336.025C313.131 336.025 313.399 336.134 313.608 336.352C313.816 336.561 313.921 336.82 313.921 337.129C313.921 337.419 313.816 337.673 313.608 337.891C313.399 338.109 313.131 338.218 312.804 338.218C312.486 338.218 312.218 338.109 312.001 337.891C311.792 337.673 311.687 337.419 311.687 337.129ZM315.22 337.932L319.551 333.411C319.796 333.147 320.005 332.902 320.178 332.675C320.35 332.448 320.482 332.221 320.573 331.994C320.663 331.767 320.709 331.531 320.709 331.286C320.709 331.114 320.677 330.946 320.614 330.782C320.55 330.619 320.455 330.474 320.328 330.346C320.2 330.219 320.046 330.119 319.864 330.047C319.683 329.965 319.474 329.924 319.238 329.924C318.902 329.924 318.612 330.006 318.366 330.169C318.13 330.324 317.944 330.546 317.808 330.837C317.681 331.127 317.617 331.463 317.617 331.844H315.711C315.711 331.164 315.847 330.551 316.119 330.006C316.392 329.461 316.791 329.03 317.318 328.712C317.853 328.385 318.507 328.222 319.279 328.222C319.851 328.222 320.35 328.313 320.777 328.494C321.213 328.667 321.571 328.898 321.853 329.189C322.143 329.47 322.357 329.783 322.493 330.128C322.638 330.474 322.711 330.819 322.711 331.164C322.711 331.672 322.588 332.149 322.343 332.594C322.098 333.038 321.776 333.442 321.376 333.806L318.898 336.148H322.888V337.932H315.22ZM323.731 336.175L329.192 328.399H330.513V337.932H328.511V335.535L328.675 335.385V331.504L326.428 334.718H329.832L330.064 334.514H332.011V336.175H323.731Z" fill="#C1CBD7"/>
<path d="M105.397 272.776H99.643V282.837H97.6002V270.921H107.423V282.837H105.397V272.776ZM109.369 278.922C109.369 278.116 109.55 277.407 109.913 276.794C110.288 276.181 110.793 275.704 111.429 275.364C112.064 275.012 112.785 274.836 113.591 274.836C114.396 274.836 115.111 275.012 115.736 275.364C116.371 275.704 116.876 276.181 117.251 276.794C117.625 277.407 117.812 278.116 117.812 278.922C117.812 279.716 117.625 280.426 117.251 281.05C116.876 281.663 116.371 282.145 115.736 282.497C115.111 282.837 114.396 283.008 113.591 283.008C112.785 283.008 112.064 282.837 111.429 282.497C110.793 282.145 110.288 281.663 109.913 281.05C109.55 280.426 109.369 279.716 109.369 278.922ZM111.258 278.922C111.258 279.41 111.36 279.841 111.565 280.216C111.769 280.579 112.047 280.868 112.399 281.084C112.751 281.288 113.148 281.39 113.591 281.39C114.022 281.39 114.413 281.288 114.765 281.084C115.128 280.868 115.412 280.579 115.616 280.216C115.821 279.841 115.923 279.41 115.923 278.922C115.923 278.434 115.821 278.003 115.616 277.628C115.412 277.254 115.128 276.964 114.765 276.76C114.413 276.556 114.022 276.454 113.591 276.454C113.148 276.454 112.751 276.556 112.399 276.76C112.047 276.964 111.769 277.254 111.565 277.628C111.36 278.003 111.258 278.434 111.258 278.922ZM126.962 275.007V282.837H125.158V276.709H121.6V280.114C121.6 280.726 121.498 281.237 121.293 281.646C121.089 282.043 120.76 282.344 120.306 282.548C119.863 282.741 119.279 282.837 118.553 282.837V281.169C118.893 281.169 119.182 281.078 119.421 280.897C119.67 280.715 119.795 280.369 119.795 279.858V275.007H126.962Z" fill="#0C0C20"/>
<path d="M251.81 285.849C247.109 285.849 243.298 282.038 243.298 277.337C243.298 272.636 247.109 268.825 251.81 268.825C256.511 268.825 260.321 272.636 260.321 277.337C260.321 282.038 256.511 285.849 251.81 285.849ZM251.81 280.742C252.713 280.742 253.579 280.383 254.217 279.745C254.856 279.106 255.214 278.24 255.214 277.337C255.214 276.434 254.856 275.568 254.217 274.93C253.579 274.291 252.713 273.932 251.81 273.932C250.907 273.932 250.041 274.291 249.402 274.93C248.764 275.568 248.405 276.434 248.405 277.337C248.405 278.24 248.764 279.106 249.402 279.745C250.041 280.383 250.907 280.742 251.81 280.742Z" fill="#52B69A"/>
<path d="M275.778 275.585L274.961 282.837H272.884L274.518 270.325L279.404 278.411L284.307 270.325L285.941 282.837H283.864L283.03 275.585L279.404 281.731L275.778 275.585ZM293.823 275.007L288.716 286.583H286.758L288.801 281.918L285.652 275.007H287.763L290.265 281.203L289.397 281.152L291.848 275.007H293.823ZM304.598 275.007H306.811L303.322 278.377L307.152 282.837H304.939L301.194 278.241L304.598 275.007ZM301.585 275.007V282.837H299.832V275.007H301.585ZM296.819 275.007L300.223 278.241L296.478 282.837H294.265L298.095 278.377L294.605 275.007H296.819ZM309.3 278.922C309.3 279.421 309.408 279.858 309.623 280.233C309.839 280.596 310.129 280.885 310.492 281.101C310.866 281.317 311.28 281.424 311.734 281.424C312.109 281.424 312.466 281.368 312.807 281.254C313.147 281.141 313.448 280.982 313.709 280.778C313.97 280.573 314.163 280.346 314.288 280.097V282.122C314.016 282.395 313.647 282.61 313.181 282.769C312.716 282.928 312.205 283.008 311.649 283.008C310.844 283.008 310.117 282.837 309.47 282.497C308.835 282.145 308.33 281.663 307.955 281.05C307.592 280.426 307.41 279.716 307.41 278.922C307.41 278.116 307.592 277.407 307.955 276.794C308.33 276.181 308.835 275.704 309.47 275.364C310.117 275.012 310.844 274.836 311.649 274.836C312.205 274.836 312.716 274.916 313.181 275.075C313.647 275.234 314.016 275.449 314.288 275.722V277.747C314.163 277.486 313.965 277.259 313.692 277.066C313.431 276.862 313.13 276.703 312.79 276.59C312.449 276.476 312.098 276.419 311.734 276.419C311.28 276.419 310.866 276.527 310.492 276.743C310.129 276.959 309.839 277.254 309.623 277.628C309.408 278.003 309.3 278.434 309.3 278.922ZM316.252 275.007H318.057V282.837H316.252V275.007ZM320.934 275.007H323.181L319.81 278.241L323.521 282.837H321.291L317.546 278.241L320.934 275.007ZM323.904 278.922C323.904 278.116 324.085 277.407 324.448 276.794C324.823 276.181 325.328 275.704 325.964 275.364C326.599 275.012 327.32 274.836 328.126 274.836C328.931 274.836 329.646 275.012 330.271 275.364C330.906 275.704 331.411 276.181 331.786 276.794C332.16 277.407 332.347 278.116 332.347 278.922C332.347 279.716 332.16 280.426 331.786 281.05C331.411 281.663 330.906 282.145 330.271 282.497C329.646 282.837 328.931 283.008 328.126 283.008C327.32 283.008 326.599 282.837 325.964 282.497C325.328 282.145 324.823 281.663 324.448 281.05C324.085 280.426 323.904 279.716 323.904 278.922ZM325.793 278.922C325.793 279.41 325.895 279.841 326.1 280.216C326.304 280.579 326.582 280.868 326.934 281.084C327.286 281.288 327.683 281.39 328.126 281.39C328.557 281.39 328.948 281.288 329.3 281.084C329.663 280.868 329.947 280.579 330.151 280.216C330.356 279.841 330.458 279.41 330.458 278.922C330.458 278.434 330.356 278.003 330.151 277.628C329.947 277.254 329.663 276.964 329.3 276.76C328.948 276.556 328.557 276.454 328.126 276.454C327.683 276.454 327.286 276.556 326.934 276.76C326.582 276.964 326.304 277.254 326.1 277.628C325.895 278.003 325.793 278.434 325.793 278.922ZM341.191 276.709L334.16 283.433L334.245 281.135L341.276 274.411L341.191 276.709ZM335.965 275.007V281.356L334.16 283.433V275.007H335.965ZM341.276 274.411V282.837H339.471V276.488L341.276 274.411ZM335.062 271.006H336.458C336.458 271.176 336.498 271.352 336.577 271.534C336.668 271.715 336.81 271.869 337.003 271.993C337.196 272.118 337.457 272.181 337.786 272.181C338.115 272.181 338.376 272.118 338.569 271.993C338.762 271.869 338.898 271.715 338.978 271.534C339.068 271.352 339.114 271.176 339.114 271.006H340.527C340.527 271.415 340.419 271.806 340.203 272.181C339.999 272.555 339.693 272.856 339.284 273.083C338.887 273.31 338.388 273.423 337.786 273.423C337.196 273.423 336.697 273.31 336.288 273.083C335.879 272.856 335.573 272.555 335.369 272.181C335.164 271.806 335.062 271.415 335.062 271.006Z" fill="#0C0C20"/>
<path d="M373.451 285.849C368.75 285.849 364.939 282.038 364.939 277.337C364.939 272.636 368.75 268.825 373.451 268.825C378.152 268.825 381.963 272.636 381.963 277.337C381.963 282.038 378.152 285.849 373.451 285.849ZM373.451 280.742C374.354 280.742 375.22 280.383 375.859 279.745C376.497 279.106 376.856 278.24 376.856 277.337C376.856 276.434 376.497 275.568 375.859 274.93C375.22 274.291 374.354 273.932 373.451 273.932C372.548 273.932 371.682 274.291 371.044 274.93C370.405 275.568 370.047 276.434 370.047 277.337C370.047 278.24 370.405 279.106 371.044 279.745C371.682 280.383 372.548 280.742 373.451 280.742Z" fill="#A0AEC0"/>
<path d="M396.604 270.921L401.643 276.539L396.348 282.837H393.931L399.259 276.505L394.186 270.921H396.604ZM401.183 270.921H403.243V282.837H401.183V270.921ZM407.652 270.921H410.12L405.047 276.505L410.376 282.837H407.907L402.783 276.539L407.652 270.921ZM411.558 279.348V278.088H416.478C416.432 277.713 416.33 277.39 416.171 277.117C416.024 276.834 415.814 276.618 415.541 276.471C415.269 276.312 414.934 276.232 414.537 276.232C414.128 276.232 413.759 276.323 413.43 276.505C413.101 276.675 412.84 276.93 412.647 277.271C412.454 277.6 412.358 277.991 412.358 278.445L412.324 278.922C412.324 279.501 412.415 279.983 412.596 280.369C412.789 280.743 413.05 281.027 413.379 281.22C413.72 281.402 414.111 281.493 414.554 281.493C414.917 281.493 415.235 281.441 415.507 281.339C415.791 281.237 416.041 281.095 416.256 280.914C416.472 280.721 416.653 280.499 416.801 280.25L418.384 280.897C418.123 281.317 417.822 281.685 417.482 282.003C417.153 282.321 416.744 282.571 416.256 282.752C415.78 282.923 415.184 283.008 414.469 283.008C413.663 283.008 412.959 282.832 412.358 282.48C411.756 282.128 411.291 281.646 410.962 281.033C410.633 280.409 410.468 279.705 410.468 278.922C410.468 278.774 410.474 278.633 410.485 278.496C410.497 278.36 410.514 278.224 410.536 278.088C410.65 277.441 410.877 276.873 411.217 276.385C411.569 275.897 412.029 275.517 412.596 275.245C413.164 274.972 413.816 274.836 414.554 274.836C415.36 274.836 416.052 275.001 416.631 275.33C417.221 275.648 417.675 276.107 417.993 276.709C418.31 277.299 418.469 278.008 418.469 278.837C418.469 278.905 418.469 278.984 418.469 279.075C418.469 279.155 418.458 279.245 418.435 279.348H411.558ZM421.041 279.467V277.952H427.033V279.467H421.041ZM426.046 275.007H427.85V282.837H426.046V275.007ZM420.241 275.007H422.045V282.837H420.241V275.007ZM431.425 278.922C431.425 279.421 431.533 279.858 431.748 280.233C431.964 280.596 432.253 280.885 432.616 281.101C432.991 281.317 433.405 281.424 433.859 281.424C434.234 281.424 434.591 281.368 434.932 281.254C435.272 281.141 435.573 280.982 435.834 280.778C436.095 280.573 436.288 280.346 436.413 280.097V282.122C436.14 282.395 435.771 282.61 435.306 282.769C434.841 282.928 434.33 283.008 433.774 283.008C432.968 283.008 432.242 282.837 431.595 282.497C430.959 282.145 430.454 281.663 430.08 281.05C429.717 280.426 429.535 279.716 429.535 278.922C429.535 278.116 429.717 277.407 430.08 276.794C430.454 276.181 430.959 275.704 431.595 275.364C432.242 275.012 432.968 274.836 433.774 274.836C434.33 274.836 434.841 274.916 435.306 275.075C435.771 275.234 436.14 275.449 436.413 275.722V277.747C436.288 277.486 436.089 277.259 435.817 277.066C435.556 276.862 435.255 276.703 434.915 276.59C434.574 276.476 434.222 276.419 433.859 276.419C433.405 276.419 432.991 276.527 432.616 276.743C432.253 276.959 431.964 277.254 431.748 277.628C431.533 278.003 431.425 278.434 431.425 278.922ZM438.377 275.007H440.181V282.837H438.377V275.007ZM443.058 275.007H445.305L441.935 278.241L445.646 282.837H443.416L439.671 278.241L443.058 275.007ZM453.972 276.709L446.942 283.433L447.027 281.135L454.058 274.411L453.972 276.709ZM448.746 275.007V281.356L446.942 283.433V275.007H448.746ZM454.058 274.411V282.837H452.253V276.488L454.058 274.411ZM463.581 276.709L456.551 283.433L456.636 281.135L463.667 274.411L463.581 276.709ZM458.355 275.007V281.356L456.551 283.433V275.007H458.355ZM463.667 274.411V282.837H461.862V276.488L463.667 274.411ZM457.453 271.006H458.849C458.849 271.176 458.889 271.352 458.968 271.534C459.059 271.715 459.201 271.869 459.394 271.993C459.587 272.118 459.848 272.181 460.177 272.181C460.506 272.181 460.767 272.118 460.96 271.993C461.153 271.869 461.289 271.715 461.368 271.534C461.459 271.352 461.505 271.176 461.505 271.006H462.918C462.918 271.415 462.81 271.806 462.594 272.181C462.39 272.555 462.083 272.856 461.675 273.083C461.278 273.31 460.778 273.423 460.177 273.423C459.587 273.423 459.087 273.31 458.679 273.083C458.27 272.856 457.964 272.555 457.759 272.181C457.555 271.806 457.453 271.415 457.453 271.006Z" fill="#0C0C20"/>
<path d="M98.3662 221.463V219.607H106.861V221.463H98.3662ZM105.567 215.011H107.576V226.927H105.567V215.011ZM97.5661 215.011H99.5749V226.927H97.5661V215.011ZM109.485 223.012C109.485 222.206 109.667 221.497 110.03 220.884C110.404 220.271 110.909 219.794 111.545 219.454C112.18 219.102 112.901 218.926 113.707 218.926C114.513 218.926 115.228 219.102 115.852 219.454C116.487 219.794 116.992 220.271 117.367 220.884C117.742 221.497 117.929 222.206 117.929 223.012C117.929 223.806 117.742 224.516 117.367 225.14C116.992 225.753 116.487 226.235 115.852 226.587C115.228 226.927 114.513 227.097 113.707 227.097C112.901 227.097 112.18 226.927 111.545 226.587C110.909 226.235 110.404 225.753 110.03 225.14C109.667 224.516 109.485 223.806 109.485 223.012ZM111.375 223.012C111.375 223.5 111.477 223.931 111.681 224.306C111.885 224.669 112.163 224.958 112.515 225.174C112.867 225.378 113.264 225.48 113.707 225.48C114.138 225.48 114.53 225.378 114.882 225.174C115.245 224.958 115.528 224.669 115.733 224.306C115.937 223.931 116.039 223.5 116.039 223.012C116.039 222.524 115.937 222.093 115.733 221.718C115.528 221.343 115.245 221.054 114.882 220.85C114.53 220.646 114.138 220.543 113.707 220.543C113.264 220.543 112.867 220.646 112.515 220.85C112.163 221.054 111.885 221.343 111.681 221.718C111.477 222.093 111.375 222.524 111.375 223.012ZM127.13 226.927L125.938 221.054L126.908 218.501L129.087 226.927H127.13ZM123.299 225.327L126.908 218.501L127.079 221.514L123.81 227.455L123.299 225.327ZM123.81 227.455L120.576 221.514L120.746 218.501L124.321 225.327L123.81 227.455ZM118.584 226.927L120.746 218.501L121.733 221.054L120.542 226.927H118.584ZM130.84 223.437V222.178H135.76C135.714 221.803 135.612 221.48 135.453 221.207C135.306 220.924 135.096 220.708 134.824 220.56C134.551 220.402 134.216 220.322 133.819 220.322C133.411 220.322 133.042 220.413 132.713 220.594C132.384 220.765 132.122 221.02 131.93 221.361C131.737 221.69 131.64 222.081 131.64 222.535L131.606 223.012C131.606 223.591 131.697 224.073 131.878 224.459C132.071 224.833 132.332 225.117 132.662 225.31C133.002 225.492 133.394 225.582 133.836 225.582C134.199 225.582 134.517 225.531 134.79 225.429C135.073 225.327 135.323 225.185 135.539 225.004C135.754 224.811 135.936 224.589 136.083 224.34L137.667 224.987C137.405 225.406 137.105 225.775 136.764 226.093C136.435 226.411 136.027 226.661 135.539 226.842C135.062 227.012 134.466 227.097 133.751 227.097C132.945 227.097 132.242 226.922 131.64 226.57C131.039 226.218 130.573 225.736 130.244 225.123C129.915 224.499 129.751 223.795 129.751 223.012C129.751 222.864 129.756 222.722 129.768 222.586C129.779 222.45 129.796 222.314 129.819 222.178C129.932 221.531 130.159 220.963 130.5 220.475C130.851 219.987 131.311 219.607 131.878 219.335C132.446 219.062 133.099 218.926 133.836 218.926C134.642 218.926 135.334 219.091 135.913 219.42C136.503 219.738 136.957 220.197 137.275 220.799C137.593 221.389 137.752 222.098 137.752 222.927C137.752 222.995 137.752 223.074 137.752 223.165C137.752 223.244 137.74 223.335 137.718 223.437H130.84ZM141.311 230.672H139.455V219.096H141.311V230.672ZM147.797 223.012C147.797 223.874 147.621 224.618 147.269 225.242C146.917 225.855 146.452 226.326 145.873 226.655C145.294 226.973 144.664 227.132 143.983 227.132C143.314 227.132 142.729 226.967 142.23 226.638C141.742 226.297 141.362 225.821 141.089 225.208C140.828 224.584 140.698 223.852 140.698 223.012C140.698 222.161 140.828 221.429 141.089 220.816C141.362 220.203 141.742 219.732 142.23 219.403C142.729 219.062 143.314 218.892 143.983 218.892C144.664 218.892 145.294 219.057 145.873 219.386C146.452 219.704 146.917 220.169 147.269 220.782C147.621 221.395 147.797 222.138 147.797 223.012ZM145.89 223.012C145.89 222.49 145.782 222.047 145.567 221.684C145.351 221.309 145.062 221.031 144.698 220.85C144.347 220.657 143.955 220.56 143.524 220.56C143.172 220.56 142.826 220.657 142.485 220.85C142.145 221.031 141.861 221.304 141.634 221.667C141.418 222.03 141.311 222.478 141.311 223.012C141.311 223.545 141.418 223.994 141.634 224.357C141.861 224.72 142.145 224.998 142.485 225.191C142.826 225.372 143.172 225.463 143.524 225.463C143.955 225.463 144.347 225.372 144.698 225.191C145.062 224.998 145.351 224.72 145.567 224.357C145.782 223.982 145.89 223.534 145.89 223.012ZM153.562 219.096H158.516V220.714H153.562V219.096ZM155.145 219.437H156.95V226.927H155.145V219.437ZM160.016 223.437V222.178H164.936C164.891 221.803 164.789 221.48 164.63 221.207C164.482 220.924 164.272 220.708 164 220.56C163.727 220.402 163.393 220.322 162.995 220.322C162.587 220.322 162.218 220.413 161.889 220.594C161.56 220.765 161.299 221.02 161.106 221.361C160.913 221.69 160.816 222.081 160.816 222.535L160.782 223.012C160.782 223.591 160.873 224.073 161.055 224.459C161.248 224.833 161.509 225.117 161.838 225.31C162.178 225.492 162.57 225.582 163.012 225.582C163.376 225.582 163.693 225.531 163.966 225.429C164.25 225.327 164.499 225.185 164.715 225.004C164.93 224.811 165.112 224.589 165.26 224.34L166.843 224.987C166.582 225.406 166.281 225.775 165.941 226.093C165.611 226.411 165.203 226.661 164.715 226.842C164.238 227.012 163.642 227.097 162.927 227.097C162.122 227.097 161.418 226.922 160.816 226.57C160.215 226.218 159.75 225.736 159.42 225.123C159.091 224.499 158.927 223.795 158.927 223.012C158.927 222.864 158.932 222.722 158.944 222.586C158.955 222.45 158.972 222.314 158.995 222.178C159.108 221.531 159.335 220.963 159.676 220.475C160.028 219.987 160.487 219.607 161.055 219.335C161.622 219.062 162.275 218.926 163.012 218.926C163.818 218.926 164.511 219.091 165.089 219.42C165.679 219.738 166.133 220.197 166.451 220.799C166.769 221.389 166.928 222.098 166.928 222.927C166.928 222.995 166.928 223.074 166.928 223.165C166.928 223.244 166.917 223.335 166.894 223.437H160.016ZM176.105 219.096V226.927H174.3V220.799H170.742V224.203C170.742 224.816 170.64 225.327 170.436 225.736C170.232 226.133 169.902 226.434 169.448 226.638C169.006 226.831 168.421 226.927 167.695 226.927V225.259C168.035 225.259 168.325 225.168 168.563 224.987C168.813 224.805 168.938 224.459 168.938 223.948V219.096H176.105ZM179.135 223.437V222.178H184.054C184.009 221.803 183.907 221.48 183.748 221.207C183.601 220.924 183.391 220.708 183.118 220.56C182.846 220.402 182.511 220.322 182.114 220.322C181.705 220.322 181.336 220.413 181.007 220.594C180.678 220.765 180.417 221.02 180.224 221.361C180.031 221.69 179.935 222.081 179.935 222.535L179.901 223.012C179.901 223.591 179.992 224.073 180.173 224.459C180.366 224.833 180.627 225.117 180.956 225.31C181.297 225.492 181.688 225.582 182.131 225.582C182.494 225.582 182.812 225.531 183.084 225.429C183.368 225.327 183.618 225.185 183.833 225.004C184.049 224.811 184.23 224.589 184.378 224.34L185.961 224.987C185.7 225.406 185.399 225.775 185.059 226.093C184.73 226.411 184.321 226.661 183.833 226.842C183.357 227.012 182.761 227.097 182.046 227.097C181.24 227.097 180.536 226.922 179.935 226.57C179.333 226.218 178.868 225.736 178.539 225.123C178.21 224.499 178.045 223.795 178.045 223.012C178.045 222.864 178.051 222.722 178.062 222.586C178.074 222.45 178.091 222.314 178.113 222.178C178.227 221.531 178.454 220.963 178.794 220.475C179.146 219.987 179.606 219.607 180.173 219.335C180.741 219.062 181.393 218.926 182.131 218.926C182.937 218.926 183.629 219.091 184.208 219.42C184.798 219.738 185.252 220.197 185.57 220.799C185.887 221.389 186.046 222.098 186.046 222.927C186.046 222.995 186.046 223.074 186.046 223.165C186.046 223.244 186.035 223.335 186.012 223.437H179.135ZM191.018 217.394H192.806V228.63H191.018V217.394ZM187.222 223.012C187.222 222.206 187.409 221.497 187.784 220.884C188.17 220.271 188.714 219.794 189.418 219.454C190.122 219.102 190.95 218.926 191.903 218.926C192.868 218.926 193.702 219.102 194.406 219.454C195.11 219.794 195.649 220.271 196.023 220.884C196.409 221.497 196.602 222.206 196.602 223.012C196.602 223.806 196.409 224.516 196.023 225.14C195.649 225.753 195.11 226.235 194.406 226.587C193.702 226.927 192.868 227.097 191.903 227.097C190.95 227.097 190.122 226.927 189.418 226.587C188.714 226.235 188.17 225.753 187.784 225.14C187.409 224.516 187.222 223.806 187.222 223.012ZM188.975 223.012C188.975 223.5 189.083 223.931 189.299 224.306C189.526 224.669 189.855 224.958 190.286 225.174C190.729 225.378 191.268 225.48 191.903 225.48C192.539 225.48 193.072 225.378 193.504 225.174C193.946 224.958 194.275 224.669 194.491 224.306C194.718 223.931 194.832 223.5 194.832 223.012C194.832 222.524 194.718 222.093 194.491 221.718C194.275 221.343 193.946 221.054 193.504 220.85C193.072 220.646 192.539 220.543 191.903 220.543C191.268 220.543 190.729 220.646 190.286 220.85C189.855 221.054 189.526 221.343 189.299 221.718C189.083 222.093 188.975 222.524 188.975 223.012ZM197.745 223.012C197.745 222.206 197.927 221.497 198.29 220.884C198.665 220.271 199.17 219.794 199.805 219.454C200.441 219.102 201.161 218.926 201.967 218.926C202.773 218.926 203.488 219.102 204.112 219.454C204.748 219.794 205.253 220.271 205.627 220.884C206.002 221.497 206.189 222.206 206.189 223.012C206.189 223.806 206.002 224.516 205.627 225.14C205.253 225.753 204.748 226.235 204.112 226.587C203.488 226.927 202.773 227.097 201.967 227.097C201.161 227.097 200.441 226.927 199.805 226.587C199.17 226.235 198.665 225.753 198.29 225.14C197.927 224.516 197.745 223.806 197.745 223.012ZM199.635 223.012C199.635 223.5 199.737 223.931 199.941 224.306C200.146 224.669 200.424 224.958 200.776 225.174C201.127 225.378 201.525 225.48 201.967 225.48C202.398 225.48 202.79 225.378 203.142 225.174C203.505 224.958 203.789 224.669 203.993 224.306C204.197 223.931 204.299 223.5 204.299 223.012C204.299 222.524 204.197 222.093 203.993 221.718C203.789 221.343 203.505 221.054 203.142 220.85C202.79 220.646 202.398 220.543 201.967 220.543C201.525 220.543 201.127 220.646 200.776 220.85C200.424 221.054 200.146 221.343 199.941 221.718C199.737 222.093 199.635 222.524 199.635 223.012ZM208.734 223.557V222.041H214.726V223.557H208.734ZM213.739 219.096H215.543V226.927H213.739V219.096ZM207.934 219.096H209.738V226.927H207.934V219.096ZM219.049 224.612C219.049 224.85 219.112 225.049 219.237 225.208C219.373 225.367 219.549 225.492 219.764 225.582C219.98 225.662 220.224 225.702 220.496 225.702C220.894 225.702 221.251 225.639 221.569 225.514C221.887 225.389 222.136 225.191 222.318 224.918C222.499 224.646 222.59 224.283 222.59 223.829L222.863 224.714C222.863 225.214 222.732 225.645 222.471 226.008C222.21 226.36 221.858 226.632 221.416 226.825C220.973 227.007 220.479 227.097 219.935 227.097C219.424 227.097 218.959 227.007 218.539 226.825C218.13 226.644 217.801 226.377 217.551 226.025C217.313 225.662 217.194 225.214 217.194 224.68C217.194 224.147 217.33 223.687 217.602 223.301C217.875 222.915 218.261 222.62 218.76 222.416C219.271 222.212 219.867 222.11 220.547 222.11C221.001 222.11 221.404 222.166 221.756 222.28C222.119 222.393 222.42 222.524 222.658 222.671C222.897 222.819 223.061 222.949 223.152 223.063V224.033C222.8 223.772 222.443 223.585 222.08 223.471C221.716 223.347 221.296 223.284 220.82 223.284C220.434 223.284 220.105 223.341 219.832 223.454C219.571 223.557 219.373 223.71 219.237 223.914C219.112 224.107 219.049 224.34 219.049 224.612ZM218.641 221.156L217.909 219.845C218.261 219.63 218.709 219.42 219.254 219.216C219.798 219.011 220.423 218.909 221.126 218.909C221.773 218.909 222.341 219.006 222.829 219.199C223.317 219.391 223.697 219.669 223.969 220.033C224.253 220.384 224.395 220.821 224.395 221.343V226.927H222.59V221.548C222.59 221.185 222.437 220.907 222.131 220.714C221.836 220.509 221.472 220.407 221.041 220.407C220.667 220.407 220.32 220.453 220.003 220.543C219.685 220.634 219.407 220.742 219.169 220.867C218.942 220.98 218.766 221.077 218.641 221.156Z" fill="#0C0C20"/>
<rect x="246.667" y="200.147" width="407.716" height="42.5591" rx="10.2142" fill="#F7FAFC"/>
<path d="M272.237 223.676V221.974H279.4V223.676H272.237ZM274.906 219.236H276.731V226.414H274.906V219.236ZM286.417 220.176C286.417 219.813 286.34 219.5 286.186 219.236C286.032 218.964 285.818 218.755 285.546 218.61C285.283 218.456 284.983 218.378 284.647 218.378C284.311 218.378 284.007 218.456 283.735 218.61C283.471 218.755 283.262 218.964 283.108 219.236C282.954 219.5 282.877 219.813 282.877 220.176C282.877 220.53 282.954 220.843 283.108 221.116C283.262 221.388 283.471 221.602 283.735 221.756C284.007 221.91 284.311 221.987 284.647 221.987C284.983 221.987 285.283 221.91 285.546 221.756C285.818 221.602 286.032 221.388 286.186 221.116C286.34 220.843 286.417 220.53 286.417 220.176ZM284.484 226.4H282.019L285.083 222.805L285.423 222.682C285.196 222.918 284.965 223.077 284.729 223.159C284.493 223.231 284.207 223.268 283.871 223.268C283.508 223.268 283.153 223.195 282.808 223.05C282.463 222.904 282.15 222.696 281.869 222.423C281.596 222.151 281.378 221.824 281.215 221.443C281.052 221.061 280.97 220.639 280.97 220.176C280.97 219.432 281.133 218.801 281.46 218.283C281.796 217.766 282.241 217.375 282.795 217.112C283.349 216.84 283.966 216.703 284.647 216.703C285.328 216.703 285.945 216.84 286.499 217.112C287.053 217.375 287.493 217.766 287.82 218.283C288.156 218.801 288.324 219.432 288.324 220.176C288.324 220.648 288.233 221.089 288.052 221.497C287.87 221.897 287.648 222.269 287.384 222.614L284.484 226.4ZM295.129 220.176C295.129 219.813 295.052 219.5 294.897 219.236C294.743 218.964 294.53 218.755 294.257 218.61C293.994 218.456 293.694 218.378 293.358 218.378C293.022 218.378 292.718 218.456 292.446 218.61C292.183 218.755 291.974 218.964 291.819 219.236C291.665 219.5 291.588 219.813 291.588 220.176C291.588 220.53 291.665 220.843 291.819 221.116C291.974 221.388 292.183 221.602 292.446 221.756C292.718 221.91 293.022 221.987 293.358 221.987C293.694 221.987 293.994 221.91 294.257 221.756C294.53 221.602 294.743 221.388 294.897 221.116C295.052 220.843 295.129 220.53 295.129 220.176ZM293.195 226.4H290.73L293.794 222.805L294.135 222.682C293.908 222.918 293.676 223.077 293.44 223.159C293.204 223.231 292.918 223.268 292.582 223.268C292.219 223.268 291.865 223.195 291.52 223.05C291.175 222.904 290.862 222.696 290.58 222.423C290.308 222.151 290.09 221.824 289.926 221.443C289.763 221.061 289.681 220.639 289.681 220.176C289.681 219.432 289.845 218.801 290.172 218.283C290.507 217.766 290.952 217.375 291.506 217.112C292.06 216.84 292.677 216.703 293.358 216.703C294.039 216.703 294.657 216.84 295.211 217.112C295.764 217.375 296.205 217.766 296.532 218.283C296.867 218.801 297.035 219.432 297.035 220.176C297.035 220.648 296.945 221.089 296.763 221.497C296.581 221.897 296.359 222.269 296.096 222.614L293.195 226.4ZM298.774 219.196C298.774 218.687 298.91 218.247 299.182 217.875C299.455 217.502 299.818 217.216 300.272 217.017C300.735 216.808 301.248 216.703 301.811 216.703C302.365 216.703 302.869 216.808 303.323 217.017C303.786 217.216 304.153 217.502 304.426 217.875C304.707 218.247 304.848 218.687 304.848 219.196C304.848 219.613 304.762 219.981 304.589 220.299C304.426 220.607 304.199 220.866 303.908 221.075C303.627 221.284 303.304 221.443 302.941 221.552C302.578 221.661 302.201 221.715 301.811 221.715C301.42 221.715 301.044 221.661 300.681 221.552C300.317 221.443 299.991 221.284 299.7 221.075C299.419 220.866 299.192 220.607 299.019 220.299C298.856 219.981 298.774 219.613 298.774 219.196ZM300.599 219.386C300.599 219.631 300.653 219.845 300.762 220.026C300.871 220.208 301.016 220.353 301.198 220.462C301.38 220.562 301.584 220.612 301.811 220.612C302.038 220.612 302.242 220.562 302.424 220.462C302.605 220.353 302.746 220.208 302.846 220.026C302.955 219.845 303.009 219.631 303.009 219.386C303.009 219.15 302.959 218.937 302.86 218.746C302.76 218.556 302.619 218.41 302.437 218.31C302.256 218.21 302.047 218.161 301.811 218.161C301.575 218.161 301.366 218.21 301.184 218.31C301.003 218.41 300.858 218.556 300.749 218.746C300.649 218.937 300.599 219.15 300.599 219.386ZM298.433 223.84C298.433 223.358 298.533 222.945 298.733 222.6C298.933 222.246 299.196 221.956 299.523 221.729C299.859 221.502 300.227 221.334 300.626 221.225C301.026 221.116 301.42 221.061 301.811 221.061C302.201 221.061 302.596 221.116 302.996 221.225C303.395 221.334 303.758 221.502 304.085 221.729C304.421 221.956 304.689 222.246 304.889 222.6C305.089 222.945 305.188 223.358 305.188 223.84C305.188 224.257 305.098 224.639 304.916 224.984C304.734 225.32 304.485 225.61 304.167 225.855C303.858 226.1 303.5 226.291 303.091 226.427C302.692 226.554 302.265 226.618 301.811 226.618C301.357 226.618 300.926 226.554 300.517 226.427C300.118 226.291 299.759 226.1 299.441 225.855C299.123 225.61 298.874 225.32 298.692 224.984C298.52 224.639 298.433 224.257 298.433 223.84ZM300.354 223.554C300.354 223.871 300.417 224.139 300.544 224.357C300.681 224.566 300.858 224.729 301.075 224.847C301.302 224.956 301.548 225.011 301.811 225.011C302.065 225.011 302.301 224.956 302.519 224.847C302.746 224.729 302.928 224.566 303.064 224.357C303.2 224.139 303.268 223.871 303.268 223.554C303.268 223.29 303.2 223.05 303.064 222.832C302.928 222.614 302.746 222.441 302.519 222.314C302.301 222.187 302.065 222.124 301.811 222.124C301.548 222.124 301.302 222.187 301.075 222.314C300.858 222.441 300.681 222.614 300.544 222.832C300.417 223.05 300.354 223.29 300.354 223.554ZM312.033 220.176C312.033 219.813 311.956 219.5 311.801 219.236C311.647 218.964 311.434 218.755 311.161 218.61C310.898 218.456 310.598 218.378 310.262 218.378C309.926 218.378 309.622 218.456 309.35 218.61C309.087 218.755 308.878 218.964 308.723 219.236C308.569 219.5 308.492 219.813 308.492 220.176C308.492 220.53 308.569 220.843 308.723 221.116C308.878 221.388 309.087 221.602 309.35 221.756C309.622 221.91 309.926 221.987 310.262 221.987C310.598 221.987 310.898 221.91 311.161 221.756C311.434 221.602 311.647 221.388 311.801 221.116C311.956 220.843 312.033 220.53 312.033 220.176ZM310.099 226.4H307.634L310.698 222.805L311.039 222.682C310.812 222.918 310.58 223.077 310.344 223.159C310.108 223.231 309.822 223.268 309.486 223.268C309.123 223.268 308.769 223.195 308.424 223.05C308.079 222.904 307.765 222.696 307.484 222.423C307.212 222.151 306.994 221.824 306.83 221.443C306.667 221.061 306.585 220.639 306.585 220.176C306.585 219.432 306.749 218.801 307.075 218.283C307.411 217.766 307.856 217.375 308.41 217.112C308.964 216.84 309.581 216.703 310.262 216.703C310.943 216.703 311.561 216.84 312.114 217.112C312.668 217.375 313.109 217.766 313.436 218.283C313.771 218.801 313.939 219.432 313.939 220.176C313.939 220.648 313.849 221.089 313.667 221.497C313.485 221.897 313.263 222.269 313 222.614L310.099 226.4ZM320.744 220.176C320.744 219.813 320.667 219.5 320.513 219.236C320.358 218.964 320.145 218.755 319.872 218.61C319.609 218.456 319.31 218.378 318.974 218.378C318.638 218.378 318.334 218.456 318.061 218.61C317.798 218.755 317.589 218.964 317.435 219.236C317.28 219.5 317.203 219.813 317.203 220.176C317.203 220.53 317.28 220.843 317.435 221.116C317.589 221.388 317.798 221.602 318.061 221.756C318.334 221.91 318.638 221.987 318.974 221.987C319.31 221.987 319.609 221.91 319.872 221.756C320.145 221.602 320.358 221.388 320.513 221.116C320.667 220.843 320.744 220.53 320.744 220.176ZM318.81 226.4H316.345L319.409 222.805L319.75 222.682C319.523 222.918 319.291 223.077 319.055 223.159C318.819 223.231 318.533 223.268 318.197 223.268C317.834 223.268 317.48 223.195 317.135 223.05C316.79 222.904 316.477 222.696 316.195 222.423C315.923 222.151 315.705 221.824 315.542 221.443C315.378 221.061 315.297 220.639 315.297 220.176C315.297 219.432 315.46 218.801 315.787 218.283C316.123 217.766 316.568 217.375 317.121 217.112C317.675 216.84 318.293 216.703 318.974 216.703C319.655 216.703 320.272 216.84 320.826 217.112C321.38 217.375 321.82 217.766 322.147 218.283C322.483 218.801 322.651 219.432 322.651 220.176C322.651 220.648 322.56 221.089 322.378 221.497C322.197 221.897 321.974 222.269 321.711 222.614L318.81 226.4ZM333.538 220.176C333.538 219.813 333.461 219.5 333.307 219.236C333.153 218.964 332.939 218.755 332.667 218.61C332.403 218.456 332.104 218.378 331.768 218.378C331.432 218.378 331.128 218.456 330.855 218.61C330.592 218.755 330.383 218.964 330.229 219.236C330.075 219.5 329.997 219.813 329.997 220.176C329.997 220.53 330.075 220.843 330.229 221.116C330.383 221.388 330.592 221.602 330.855 221.756C331.128 221.91 331.432 221.987 331.768 221.987C332.104 221.987 332.403 221.91 332.667 221.756C332.939 221.602 333.153 221.388 333.307 221.116C333.461 220.843 333.538 220.53 333.538 220.176ZM331.605 226.4H329.139L332.204 222.805L332.544 222.682C332.317 222.918 332.086 223.077 331.85 223.159C331.614 223.231 331.328 223.268 330.992 223.268C330.628 223.268 330.274 223.195 329.929 223.05C329.584 222.904 329.271 222.696 328.99 222.423C328.717 222.151 328.499 221.824 328.336 221.443C328.173 221.061 328.091 220.639 328.091 220.176C328.091 219.432 328.254 218.801 328.581 218.283C328.917 217.766 329.362 217.375 329.916 217.112C330.47 216.84 331.087 216.703 331.768 216.703C332.449 216.703 333.066 216.84 333.62 217.112C334.174 217.375 334.614 217.766 334.941 218.283C335.277 218.801 335.445 219.432 335.445 220.176C335.445 220.648 335.354 221.089 335.173 221.497C334.991 221.897 334.769 222.269 334.505 222.614L331.605 226.4ZM342.25 220.176C342.25 219.813 342.173 219.5 342.018 219.236C341.864 218.964 341.65 218.755 341.378 218.61C341.115 218.456 340.815 218.378 340.479 218.378C340.143 218.378 339.839 218.456 339.567 218.61C339.303 218.755 339.095 218.964 338.94 219.236C338.786 219.5 338.709 219.813 338.709 220.176C338.709 220.53 338.786 220.843 338.94 221.116C339.095 221.388 339.303 221.602 339.567 221.756C339.839 221.91 340.143 221.987 340.479 221.987C340.815 221.987 341.115 221.91 341.378 221.756C341.65 221.602 341.864 221.388 342.018 221.116C342.173 220.843 342.25 220.53 342.25 220.176ZM340.316 226.4H337.851L340.915 222.805L341.256 222.682C341.029 222.918 340.797 223.077 340.561 223.159C340.325 223.231 340.039 223.268 339.703 223.268C339.34 223.268 338.986 223.195 338.641 223.05C338.296 222.904 337.982 222.696 337.701 222.423C337.429 222.151 337.211 221.824 337.047 221.443C336.884 221.061 336.802 220.639 336.802 220.176C336.802 219.432 336.966 218.801 337.292 218.283C337.628 217.766 338.073 217.375 338.627 217.112C339.181 216.84 339.798 216.703 340.479 216.703C341.16 216.703 341.778 216.84 342.331 217.112C342.885 217.375 343.326 217.766 343.652 218.283C343.988 218.801 344.156 219.432 344.156 220.176C344.156 220.648 344.066 221.089 343.884 221.497C343.702 221.897 343.48 222.269 343.217 222.614L340.316 226.4ZM350.961 220.176C350.961 219.813 350.884 219.5 350.73 219.236C350.575 218.964 350.362 218.755 350.089 218.61C349.826 218.456 349.527 218.378 349.191 218.378C348.855 218.378 348.55 218.456 348.278 218.61C348.015 218.755 347.806 218.964 347.652 219.236C347.497 219.5 347.42 219.813 347.42 220.176C347.42 220.53 347.497 220.843 347.652 221.116C347.806 221.388 348.015 221.602 348.278 221.756C348.55 221.91 348.855 221.987 349.191 221.987C349.527 221.987 349.826 221.91 350.089 221.756C350.362 221.602 350.575 221.388 350.73 221.116C350.884 220.843 350.961 220.53 350.961 220.176ZM349.027 226.4H346.562L349.626 222.805L349.967 222.682C349.74 222.918 349.508 223.077 349.272 223.159C349.036 223.231 348.75 223.268 348.414 223.268C348.051 223.268 347.697 223.195 347.352 223.05C347.007 222.904 346.694 222.696 346.412 222.423C346.14 222.151 345.922 221.824 345.759 221.443C345.595 221.061 345.513 220.639 345.513 220.176C345.513 219.432 345.677 218.801 346.004 218.283C346.34 217.766 346.785 217.375 347.338 217.112C347.892 216.84 348.51 216.703 349.191 216.703C349.872 216.703 350.489 216.84 351.043 217.112C351.597 217.375 352.037 217.766 352.364 218.283C352.7 218.801 352.868 219.432 352.868 220.176C352.868 220.648 352.777 221.089 352.595 221.497C352.414 221.897 352.191 222.269 351.928 222.614L349.027 226.4ZM353.612 223.962V222.423H356.458V223.962H353.612ZM362.651 220.176C362.651 219.813 362.574 219.5 362.42 219.236C362.266 218.964 362.052 218.755 361.78 218.61C361.517 218.456 361.217 218.378 360.881 218.378C360.545 218.378 360.241 218.456 359.969 218.61C359.705 218.755 359.496 218.964 359.342 219.236C359.188 219.5 359.111 219.813 359.111 220.176C359.111 220.53 359.188 220.843 359.342 221.116C359.496 221.388 359.705 221.602 359.969 221.756C360.241 221.91 360.545 221.987 360.881 221.987C361.217 221.987 361.517 221.91 361.78 221.756C362.052 221.602 362.266 221.388 362.42 221.116C362.574 220.843 362.651 220.53 362.651 220.176ZM360.718 226.4H358.253L361.317 222.805L361.657 222.682C361.43 222.918 361.199 223.077 360.963 223.159C360.727 223.231 360.441 223.268 360.105 223.268C359.742 223.268 359.387 223.195 359.042 223.05C358.697 222.904 358.384 222.696 358.103 222.423C357.83 222.151 357.612 221.824 357.449 221.443C357.286 221.061 357.204 220.639 357.204 220.176C357.204 219.432 357.367 218.801 357.694 218.283C358.03 217.766 358.475 217.375 359.029 217.112C359.583 216.84 360.2 216.703 360.881 216.703C361.562 216.703 362.179 216.84 362.733 217.112C363.287 217.375 363.727 217.766 364.054 218.283C364.39 218.801 364.558 219.432 364.558 220.176C364.558 220.648 364.467 221.089 364.286 221.497C364.104 221.897 363.882 222.269 363.618 222.614L360.718 226.4ZM371.363 220.176C371.363 219.813 371.286 219.5 371.131 219.236C370.977 218.964 370.764 218.755 370.491 218.61C370.228 218.456 369.928 218.378 369.592 218.378C369.256 218.378 368.952 218.456 368.68 218.61C368.417 218.755 368.208 218.964 368.053 219.236C367.899 219.5 367.822 219.813 367.822 220.176C367.822 220.53 367.899 220.843 368.053 221.116C368.208 221.388 368.417 221.602 368.68 221.756C368.952 221.91 369.256 221.987 369.592 221.987C369.928 221.987 370.228 221.91 370.491 221.756C370.764 221.602 370.977 221.388 371.131 221.116C371.286 220.843 371.363 220.53 371.363 220.176ZM369.429 226.4H366.964L370.028 222.805L370.369 222.682C370.142 222.918 369.91 223.077 369.674 223.159C369.438 223.231 369.152 223.268 368.816 223.268C368.453 223.268 368.099 223.195 367.754 223.05C367.409 222.904 367.096 222.696 366.814 222.423C366.542 222.151 366.324 221.824 366.16 221.443C365.997 221.061 365.915 220.639 365.915 220.176C365.915 219.432 366.079 218.801 366.406 218.283C366.741 217.766 367.186 217.375 367.74 217.112C368.294 216.84 368.911 216.703 369.592 216.703C370.273 216.703 370.891 216.84 371.445 217.112C371.998 217.375 372.439 217.766 372.766 218.283C373.101 218.801 373.269 219.432 373.269 220.176C373.269 220.648 373.179 221.089 372.997 221.497C372.815 221.897 372.593 222.269 372.33 222.614L369.429 226.4ZM374.014 223.962V222.423H376.86V223.962H374.014ZM383.053 220.176C383.053 219.813 382.976 219.5 382.822 219.236C382.667 218.964 382.454 218.755 382.182 218.61C381.918 218.456 381.619 218.378 381.283 218.378C380.947 218.378 380.643 218.456 380.37 218.61C380.107 218.755 379.898 218.964 379.744 219.236C379.59 219.5 379.512 219.813 379.512 220.176C379.512 220.53 379.59 220.843 379.744 221.116C379.898 221.388 380.107 221.602 380.37 221.756C380.643 221.91 380.947 221.987 381.283 221.987C381.619 221.987 381.918 221.91 382.182 221.756C382.454 221.602 382.667 221.388 382.822 221.116C382.976 220.843 383.053 220.53 383.053 220.176ZM381.119 226.4H378.654L381.719 222.805L382.059 222.682C381.832 222.918 381.601 223.077 381.365 223.159C381.128 223.231 380.842 223.268 380.507 223.268C380.143 223.268 379.789 223.195 379.444 223.05C379.099 222.904 378.786 222.696 378.505 222.423C378.232 222.151 378.014 221.824 377.851 221.443C377.687 221.061 377.606 220.639 377.606 220.176C377.606 219.432 377.769 218.801 378.096 218.283C378.432 217.766 378.877 217.375 379.431 217.112C379.984 216.84 380.602 216.703 381.283 216.703C381.964 216.703 382.581 216.84 383.135 217.112C383.689 217.375 384.129 217.766 384.456 218.283C384.792 218.801 384.96 219.432 384.96 220.176C384.96 220.648 384.869 221.089 384.688 221.497C384.506 221.897 384.284 222.269 384.02 222.614L381.119 226.4ZM391.765 220.176C391.765 219.813 391.687 219.5 391.533 219.236C391.379 218.964 391.165 218.755 390.893 218.61C390.63 218.456 390.33 218.378 389.994 218.378C389.658 218.378 389.354 218.456 389.082 218.61C388.818 218.755 388.61 218.964 388.455 219.236C388.301 219.5 388.224 219.813 388.224 220.176C388.224 220.53 388.301 220.843 388.455 221.116C388.61 221.388 388.818 221.602 389.082 221.756C389.354 221.91 389.658 221.987 389.994 221.987C390.33 221.987 390.63 221.91 390.893 221.756C391.165 221.602 391.379 221.388 391.533 221.116C391.687 220.843 391.765 220.53 391.765 220.176ZM389.831 226.4H387.366L390.43 222.805L390.77 222.682C390.543 222.918 390.312 223.077 390.076 223.159C389.84 223.231 389.554 223.268 389.218 223.268C388.855 223.268 388.501 223.195 388.156 223.05C387.811 222.904 387.497 222.696 387.216 222.423C386.943 222.151 386.726 221.824 386.562 221.443C386.399 221.061 386.317 220.639 386.317 220.176C386.317 219.432 386.48 218.801 386.807 218.283C387.143 217.766 387.588 217.375 388.142 217.112C388.696 216.84 389.313 216.703 389.994 216.703C390.675 216.703 391.292 216.84 391.846 217.112C392.4 217.375 392.84 217.766 393.167 218.283C393.503 218.801 393.671 219.432 393.671 220.176C393.671 220.648 393.58 221.089 393.399 221.497C393.217 221.897 392.995 222.269 392.732 222.614L389.831 226.4Z" fill="#A0AEC0"/>
<path d="M108.155 160.994L97.5661 171.345L97.6512 168.587L108.24 158.237L108.155 160.994ZM99.5409 158.832V169.098L97.5661 171.345V158.832H99.5409ZM108.24 158.237V170.749H106.265V160.535L108.24 158.237ZM118.186 170.749L116.994 164.876L117.964 162.322L120.143 170.749H118.186ZM114.355 169.149L117.964 162.322L118.135 165.336L114.866 171.277L114.355 169.149ZM114.866 171.277L111.632 165.336L111.802 162.322L115.377 169.149L114.866 171.277ZM109.64 170.749L111.802 162.322L112.789 164.876L111.597 170.749H109.64ZM123.003 170.749H121.045L123.735 166.868H125.607L123.003 170.749ZM128.093 170.749H126.237V162.918H128.093V170.749ZM126.918 166.34V167.736H124.484C123.95 167.736 123.456 167.656 123.003 167.498C122.549 167.327 122.185 167.066 121.913 166.714C121.641 166.351 121.504 165.88 121.504 165.301C121.504 164.723 121.641 164.263 121.913 163.923C122.185 163.571 122.549 163.315 123.003 163.156C123.456 162.998 123.95 162.918 124.484 162.918H126.918V164.45H124.637C124.353 164.45 124.115 164.484 123.922 164.552C123.729 164.621 123.581 164.723 123.479 164.859C123.377 164.995 123.326 165.171 123.326 165.387C123.326 165.614 123.377 165.795 123.479 165.931C123.581 166.068 123.729 166.17 123.922 166.238C124.115 166.306 124.353 166.34 124.637 166.34H126.918Z" fill="#0C0C20"/>
<rect x="245.851" y="143.969" width="407.716" height="42.5591" rx="10.2142" fill="#F7FAFC"/>
<path d="M280.164 162.772L271.57 170.726L271.638 168.193L280.232 160.239L280.164 162.772ZM273.45 160.716V168.696L271.57 170.726V160.716H273.45ZM280.232 160.239V170.249H278.352V162.323L280.232 160.239ZM288.118 170.249L287.219 165.741L288.118 163.508L289.93 170.249H288.118ZM285.204 168.724L288.118 163.508L288.255 166.095L285.612 170.671L285.204 168.724ZM285.612 170.671L283.011 166.095L283.147 163.508L286.021 168.724L285.612 170.671ZM281.336 170.249L283.147 163.508L284.046 165.741L283.147 170.249H281.336ZM292.444 170.249H290.592L292.621 167.266H294.351L292.444 170.249ZM296.557 170.249H294.8V163.984H296.557V170.249ZM295.427 166.667V167.92H293.479C293.052 167.92 292.648 167.852 292.267 167.716C291.886 167.571 291.582 167.353 291.355 167.062C291.128 166.763 291.014 166.381 291.014 165.918C291.014 165.446 291.128 165.069 291.355 164.788C291.582 164.506 291.886 164.302 292.267 164.175C292.648 164.048 293.052 163.984 293.479 163.984H295.427V165.401H293.683C293.475 165.401 293.302 165.423 293.166 165.469C293.03 165.514 292.925 165.582 292.853 165.673C292.78 165.764 292.744 165.886 292.744 166.041C292.744 166.186 292.78 166.309 292.853 166.408C292.925 166.499 293.03 166.567 293.166 166.613C293.302 166.649 293.475 166.667 293.683 166.667H295.427Z" fill="#A0AEC0"/>
<path d="M112.799 82.957H116.667V102.023H112.935V89.6575L107.569 98.5098H107.133L101.768 89.6847V102.023H98.0087V82.957H101.877L107.351 91.9727L112.799 82.957ZM131.659 100.335C130.279 101.715 128.572 102.405 126.538 102.405C124.505 102.405 122.798 101.715 121.418 100.335C120.038 98.9546 119.348 97.2477 119.348 95.214C119.348 93.1984 120.038 91.5006 121.418 90.1205C122.816 88.7223 124.523 88.0232 126.538 88.0232C128.554 88.0232 130.261 88.7223 131.659 90.1205C133.057 91.5187 133.756 93.2165 133.756 95.214C133.756 97.2296 133.057 98.9365 131.659 100.335ZM123.896 97.9105C124.605 98.6187 125.485 98.9728 126.538 98.9728C127.592 98.9728 128.472 98.6187 129.181 97.9105C129.889 97.2023 130.243 96.3035 130.243 95.214C130.243 94.1245 129.889 93.2256 129.181 92.5174C128.472 91.8093 127.592 91.4552 126.538 91.4552C125.485 91.4552 124.605 91.8093 123.896 92.5174C123.206 93.2438 122.861 94.1426 122.861 95.214C122.861 96.2853 123.206 97.1842 123.896 97.9105ZM139.66 96.1401L146.061 88.4045H148.676V102.023H145.244V94.2879L138.843 102.023H136.228V88.4045H139.66V96.1401ZM170.962 88.4045V98.7277H172.76V105.673H169.328V102.023H160.884V105.673H157.452V98.7277H159.113C159.894 97.5655 160.285 95.9585 160.285 93.9066V88.4045H170.962ZM162.872 98.7277H167.53V91.5641H163.717V93.9066C163.717 95.8677 163.435 97.4747 162.872 98.7277ZM184.802 90.0116V88.4045H188.316V102.023H184.802V100.416C183.749 101.742 182.269 102.405 180.362 102.405C178.546 102.405 176.985 101.715 175.677 100.335C174.388 98.9365 173.744 97.2296 173.744 95.214C173.744 93.2165 174.388 91.5187 175.677 90.1205C176.985 88.7223 178.546 88.0232 180.362 88.0232C182.269 88.0232 183.749 88.686 184.802 90.0116ZM178.319 97.9922C179.028 98.7004 179.927 99.0545 181.016 99.0545C182.106 99.0545 183.004 98.7004 183.713 97.9922C184.439 97.2659 184.802 96.3398 184.802 95.214C184.802 94.0881 184.439 93.1711 183.713 92.463C183.004 91.7366 182.106 91.3734 181.016 91.3734C179.927 91.3734 179.028 91.7366 178.319 92.463C177.611 93.1711 177.257 94.0881 177.257 95.214C177.257 96.3398 177.611 97.2659 178.319 97.9922ZM200.436 93.5525V88.4045H203.95V102.023H200.436V96.8482H195.016V102.023H191.502V88.4045H195.016V93.5525H200.436ZM216.103 93.5525V88.4045H219.617V102.023H216.103V96.8482H210.683V102.023H207.169V88.4045H210.683V93.5525H216.103ZM226.35 92.7626H228.992C230.535 92.7626 231.779 93.1893 232.723 94.0428C233.668 94.878 234.14 95.9948 234.14 97.393C234.14 98.7912 233.668 99.917 232.723 100.77C231.779 101.606 230.535 102.023 228.992 102.023H222.836V88.4045H226.35V92.7626ZM235.638 102.023V88.4045H239.152V102.023H235.638ZM226.35 98.9183H229.019C229.509 98.9183 229.909 98.7821 230.218 98.5098C230.544 98.2192 230.708 97.847 230.708 97.393C230.708 96.939 230.544 96.5668 230.218 96.2763C229.909 95.9857 229.509 95.8404 229.019 95.8404H226.35V98.9183ZM255.598 96.6576H245.329C245.783 98.3645 247.063 99.2179 249.17 99.2179C250.513 99.2179 251.53 98.764 252.22 97.856L255.053 99.4903C253.709 101.433 251.73 102.405 249.115 102.405C246.863 102.405 245.057 101.724 243.695 100.362C242.333 99 241.652 97.2841 241.652 95.214C241.652 93.1802 242.324 91.4733 243.668 90.0933C244.993 88.7132 246.718 88.0232 248.843 88.0232C250.858 88.0232 252.502 88.7132 253.773 90.0933C255.08 91.4733 255.734 93.1802 255.734 95.214C255.734 95.5953 255.688 96.0765 255.598 96.6576ZM245.275 93.9338H252.22C252.02 93.044 251.612 92.3631 250.994 91.891C250.395 91.4188 249.678 91.1828 248.843 91.1828C247.898 91.1828 247.118 91.4279 246.5 91.9182C245.883 92.3903 245.474 93.0622 245.275 93.9338Z" fill="black"/>
<rect x="633.461" y="75.0234" width="29.7914" height="29.7914" rx="14.8957" fill="#EDF2F7"/>
<path d="M648.357 88.5652L653.097 83.8252L654.451 85.1792L649.711 89.9192L654.451 94.6593L653.097 96.0133L648.357 91.2733L643.617 96.0133L642.263 94.6593L647.003 89.9192L642.263 85.1792L643.617 83.8252L648.357 88.5652Z" fill="#171923"/>
</svg>
