<svg width="213" height="43" viewBox="0 0 213 43" fill="none" xmlns="http://www.w3.org/2000/svg">
<rect x="68.832" y="13.4568" width="10.5247" height="28.9072" fill="#FFA92C"/>
<path d="M21.1633 31.7681V2.21118L12.6326 8.55542C11.1688 9.64407 10.3066 11.357 10.3066 13.1766V36.526C10.3066 39.7111 12.899 42.2932 16.0968 42.2932H32.9264C34.126 42.2932 35.2959 41.9221 36.2745 41.2313L49.68 31.7681H21.1633Z" fill="#212121"/>
<path d="M33.3936 0H23.9629V28.8695H51.5478V0H42.1171V19.4811H33.3936V0Z" fill="#22B573"/>
<path d="M55.1758 0H65.7854H84.1915C89.2429 0 93.338 4.07233 93.338 9.0958V30.101C93.338 31.2366 92.8189 32.3105 91.9273 33.0199L82.688 40.3704V10.2172H65.7854V19.4772C65.7854 20.5959 65.2815 21.6558 64.4122 22.3658L55.1758 28.7884V0Z" fill="#212121"/>
<path d="M113.712 36.1819V31.0558H128.667V36.1819H113.712ZM113.712 11.6531V6.52708H128.667V11.6531H113.712ZM113.712 22.9643V17.923H127.819V22.9643H113.712ZM109.815 6.52708H115.661V36.1819H109.815V6.52708ZM137.476 29.446L138.196 24.6589H152.43L153.15 29.446H137.476ZM145.228 16.1437L140.78 26.3534L140.907 27.7091L137.01 36.1819H130.189L145.228 4.79016L160.267 36.1819H153.405L149.592 27.9633L149.676 26.4382L145.228 16.1437ZM156.269 11.992V6.52708H178.299V11.992H170.292V36.1819H164.234V11.992H156.269ZM183.054 26.2263C183.675 27.3278 184.353 28.2881 185.087 29.1071C185.85 29.9261 186.683 30.5616 187.587 31.0135C188.491 31.4654 189.465 31.6913 190.51 31.6913C191.725 31.6913 192.713 31.3806 193.476 30.7593C194.238 30.138 194.619 29.2907 194.619 28.2175C194.619 27.2854 194.379 26.537 193.899 25.9722C193.447 25.4073 192.755 24.9131 191.823 24.4894C190.92 24.0375 189.804 23.5574 188.477 23.049C187.771 22.7949 186.951 22.4559 186.019 22.0323C185.116 21.5804 184.254 21.0156 183.435 20.3377C182.616 19.6317 181.938 18.7844 181.402 17.7959C180.865 16.7792 180.597 15.5647 180.597 14.1526C180.597 12.458 181.021 11.0035 181.868 9.78911C182.743 8.54643 183.915 7.6003 185.384 6.95072C186.881 6.2729 188.547 5.93399 190.383 5.93399C192.275 5.93399 193.899 6.25878 195.255 6.90836C196.639 7.5297 197.783 8.33461 198.686 9.32311C199.618 10.2834 200.339 11.286 200.847 12.331L196.102 14.9575C195.707 14.2515 195.227 13.616 194.662 13.0511C194.125 12.458 193.504 11.992 192.798 11.6531C192.092 11.286 191.287 11.1024 190.383 11.1024C189.197 11.1024 188.307 11.3848 187.714 11.9497C187.121 12.4863 186.824 13.1217 186.824 13.8561C186.824 14.5904 187.064 15.2399 187.545 15.8048C188.025 16.3414 188.759 16.8639 189.748 17.3723C190.736 17.8524 191.979 18.3466 193.476 18.855C194.436 19.1939 195.354 19.6176 196.229 20.1259C197.133 20.6343 197.938 21.2556 198.644 21.9899C199.378 22.696 199.943 23.5433 200.339 24.5318C200.762 25.492 200.974 26.6076 200.974 27.8785C200.974 29.3189 200.692 30.604 200.127 31.7337C199.562 32.8634 198.785 33.8236 197.797 34.6144C196.808 35.377 195.693 35.9559 194.45 36.3513C193.235 36.775 191.95 36.9868 190.595 36.9868C188.787 36.9868 187.093 36.6479 185.511 35.9701C183.958 35.264 182.602 34.3179 181.444 33.1317C180.286 31.9455 179.382 30.6604 178.733 29.2766L183.054 26.2263Z" fill="#212121"/>
</svg>
