<svg width="720" height="291" viewBox="0 0 720 291" fill="none" xmlns="http://www.w3.org/2000/svg">
<rect x="1" y="1" width="718" height="289" rx="29" fill="white"/>
<rect x="1" y="1" width="718" height="289" rx="29" stroke="#CFCFCF" stroke-width="2"/>
<rect x="12" y="239" width="40" height="40" rx="20" fill="white"/>
<path d="M40.6421 252C40.6421 251.172 39.9706 250.5 39.1421 250.5L25.6421 250.5C24.8137 250.5 24.1421 251.172 24.1421 252C24.1421 252.828 24.8137 253.5 25.6421 253.5H37.6421V265.5C37.6421 266.328 38.3137 267 39.1421 267C39.9706 267 40.6421 266.328 40.6421 265.5L40.6421 252ZM26.0607 267.203L40.2028 253.061L38.0815 250.939L23.9393 265.081L26.0607 267.203Z" fill="black"/>
<g clip-path="url(#clip0_369_3255)">
<path d="M400.5 124.19V170.553C400.5 173.567 398.06 176.007 395.047 176.007H382.317V145.1L360.5 161.467L338.683 145.1V176.01H325.953C325.237 176.01 324.528 175.869 323.866 175.595C323.204 175.32 322.602 174.918 322.096 174.412C321.59 173.905 321.188 173.303 320.914 172.641C320.64 171.979 320.5 171.27 320.5 170.553V124.19C320.5 117.447 328.197 113.597 333.59 117.643L338.683 121.467L360.5 137.827L382.317 121.46L387.41 117.643C392.8 113.6 400.5 117.447 400.5 124.19Z" fill="black"/>
</g>
<defs>
<clipPath id="clip0_369_3255">
<rect width="80" height="80" fill="white" transform="translate(320.5 106)"/>
</clipPath>
</defs>
</svg>
