<svg width="351" height="291" viewBox="0 0 351 291" fill="none" xmlns="http://www.w3.org/2000/svg">
<rect x="1" y="1" width="349" height="289" rx="29" fill="white"/>
<rect x="1" y="1" width="349" height="289" rx="29" stroke="#CFCFCF" stroke-width="2"/>
<rect x="12" y="239" width="40" height="40" rx="20" fill="white"/>
<path d="M40.6421 252C40.6421 251.172 39.9706 250.5 39.1421 250.5L25.6421 250.5C24.8137 250.5 24.1421 251.172 24.1421 252C24.1421 252.828 24.8137 253.5 25.6421 253.5H37.6421V265.5C37.6421 266.328 38.3137 267 39.1421 267C39.9706 267 40.6421 266.328 40.6421 265.5L40.6421 252ZM26.0607 267.203L40.2028 253.061L38.0815 250.939L23.9393 265.081L26.0607 267.203Z" fill="black"/>
<g clip-path="url(#clip0_161_115)">
<path d="M216 124.19V170.553C216 173.567 213.56 176.007 210.547 176.007H197.817V145.1L176 161.467L154.183 145.1V176.01H141.453C140.737 176.01 140.028 175.869 139.366 175.595C138.704 175.32 138.102 174.918 137.596 174.412C137.09 173.905 136.688 173.303 136.414 172.641C136.14 171.979 136 171.27 136 170.553V124.19C136 117.447 143.697 113.597 149.09 117.643L154.183 121.467L176 137.827L197.817 121.46L202.91 117.643C208.3 113.6 216 117.447 216 124.19Z" fill="black"/>
</g>
<defs>
<clipPath id="clip0_161_115">
<rect width="80" height="80" fill="white" transform="translate(136 106)"/>
</clipPath>
</defs>
</svg>
