<svg width="80" height="80" viewBox="0 0 80 80" fill="none" xmlns="http://www.w3.org/2000/svg">
<g clip-path="url(#clip0_540_2947)">
<path d="M80 18.1901V64.5535C80 67.5668 77.56 70.0068 74.5467 70.0068H61.8167V39.1001L40 55.4668L18.1833 39.1001V70.0101H5.45333C4.73691 70.0101 4.02751 69.869 3.36566 69.5947C2.70382 69.3204 2.1025 68.9185 1.59607 68.4117C1.08963 67.905 0.688014 67.3034 0.414154 66.6414C0.140295 65.9794 -0.000436892 65.2699 1.01884e-06 64.5535V18.1901C1.01884e-06 11.4468 7.69667 7.5968 13.09 11.6435L18.1833 15.4668L40 31.8268L61.8167 15.4601L66.91 11.6435C72.3 7.60014 80 11.4468 80 18.1901Z" fill="#212121"/>
</g>
<defs>
<clipPath id="clip0_540_2947">
<rect width="80" height="80" fill="white"/>
</clipPath>
</defs>
</svg>
