<svg width="80" height="80" viewBox="0 0 80 80" fill="none" xmlns="http://www.w3.org/2000/svg">
<path d="M43.427 6.66699C47.177 6.67699 49.0803 6.69699 50.7236 6.74366L51.3703 6.76699C52.117 6.79366 52.8536 6.82699 53.7436 6.86699C57.2903 7.03366 59.7103 7.59366 61.8336 8.41699C64.0336 9.26366 65.887 10.4103 67.7403 12.2603C69.4353 13.9266 70.7468 15.9423 71.5836 18.167C72.407 20.2903 72.967 22.7103 73.1336 26.2603C73.1736 27.147 73.207 27.8837 73.2336 28.6337L73.2536 29.2803C73.3036 30.9203 73.3236 32.8237 73.3303 36.5737L73.3336 39.0603V43.427C73.3418 45.8583 73.3163 48.2897 73.257 50.7203L73.237 51.367C73.2103 52.117 73.177 52.8537 73.137 53.7403C72.9703 57.2903 72.4036 59.707 71.5836 61.8337C70.7492 64.0596 69.4374 66.0757 67.7403 67.7403C66.0735 69.4347 64.058 70.7462 61.8336 71.5837C59.7103 72.407 57.2903 72.967 53.7436 73.1337C52.9527 73.1709 52.1616 73.2042 51.3703 73.2337L50.7236 73.2537C49.0803 73.3003 47.177 73.3237 43.427 73.3303L40.9403 73.3337H36.577C34.1445 73.3421 31.712 73.3165 29.2803 73.257L28.6336 73.237C27.8423 73.207 27.0512 73.1726 26.2603 73.1337C22.7136 72.967 20.2936 72.407 18.167 71.5837C15.9425 70.7482 13.9277 69.4365 12.2636 67.7403C10.5671 66.0746 9.25438 64.0589 8.41696 61.8337C7.59363 59.7103 7.03363 57.2903 6.86696 53.7403C6.82982 52.9494 6.79649 52.1583 6.76696 51.367L6.7503 50.7203C6.68887 48.2897 6.66109 45.8584 6.66696 43.427V36.5737C6.65766 34.1423 6.68211 31.711 6.7403 29.2803L6.76363 28.6337C6.7903 27.8837 6.82363 27.147 6.86363 26.2603C7.0303 22.7103 7.5903 20.2937 8.41363 18.167C9.25068 15.94 10.566 13.9237 12.267 12.2603C13.9306 10.5652 15.9441 9.25362 18.167 8.41699C20.2936 7.59366 22.7103 7.03366 26.2603 6.86699C27.147 6.82699 27.887 6.79366 28.6336 6.76699L29.2803 6.74699C31.7109 6.68777 34.1423 6.66221 36.5736 6.67033L43.427 6.66699ZM40.0003 23.3337C35.58 23.3337 31.3408 25.0896 28.2152 28.2152C25.0896 31.3408 23.3336 35.5801 23.3336 40.0003C23.3336 44.4206 25.0896 48.6598 28.2152 51.7854C31.3408 54.911 35.58 56.667 40.0003 56.667C44.4206 56.667 48.6598 54.911 51.7854 51.7854C54.911 48.6598 56.667 44.4206 56.667 40.0003C56.667 35.5801 54.911 31.3408 51.7854 28.2152C48.6598 25.0896 44.4206 23.3337 40.0003 23.3337ZM40.0003 30.0003C41.3135 30.0001 42.6139 30.2586 43.8273 30.7609C45.0406 31.2632 46.1431 31.9997 47.0719 32.9281C48.0006 33.8565 48.7374 34.9588 49.2401 36.172C49.7429 37.3851 50.0017 38.6854 50.002 39.9987C50.0022 41.3119 49.7437 42.6123 49.2414 43.8256C48.7391 45.039 48.0026 46.1415 47.0742 47.0702C46.1458 47.999 45.0435 48.7357 43.8303 49.2385C42.6172 49.7412 41.3169 50.0001 40.0036 50.0003C37.3515 50.0003 34.8079 48.9468 32.9326 47.0714C31.0572 45.196 30.0036 42.6525 30.0036 40.0003C30.0036 37.3482 31.0572 34.8046 32.9326 32.9293C34.8079 31.0539 37.3515 30.0003 40.0036 30.0003M57.5036 18.3337C56.3986 18.3337 55.3388 18.7726 54.5574 19.554C53.776 20.3354 53.337 21.3953 53.337 22.5003C53.337 23.6054 53.776 24.6652 54.5574 25.4466C55.3388 26.228 56.3986 26.667 57.5036 26.667C58.6087 26.667 59.6685 26.228 60.4499 25.4466C61.2313 24.6652 61.6703 23.6054 61.6703 22.5003C61.6703 21.3953 61.2313 20.3354 60.4499 19.554C59.6685 18.7726 58.6087 18.3337 57.5036 18.3337Z" fill="#212121"/>
</svg>
