<svg width="720" height="291" viewBox="0 0 720 291" fill="none" xmlns="http://www.w3.org/2000/svg">
<rect x="1" y="1" width="718" height="289" rx="29" fill="white"/>
<rect x="1" y="1" width="718" height="289" rx="29" stroke="#CFCFCF" stroke-width="2"/>
<rect x="12" y="239" width="40" height="40" rx="20" fill="white"/>
<path d="M40.6421 252C40.6421 251.172 39.9706 250.5 39.1421 250.5L25.6421 250.5C24.8137 250.5 24.1421 251.172 24.1421 252C24.1421 252.828 24.8137 253.5 25.6421 253.5H37.6421V265.5C37.6421 266.328 38.3137 267 39.1421 267C39.9706 267 40.6421 266.328 40.6421 265.5L40.6421 252ZM26.0607 267.203L40.2028 253.061L38.0815 250.939L23.9393 265.081L26.0607 267.203Z" fill="black"/>
<path d="M363.176 112.667C366.926 112.677 368.829 112.697 370.473 112.744L371.119 112.767C371.866 112.794 372.603 112.827 373.493 112.867C377.039 113.034 379.459 113.594 381.583 114.417C383.783 115.264 385.636 116.41 387.489 118.26C389.184 119.927 390.496 121.942 391.333 124.167C392.156 126.29 392.716 128.71 392.883 132.26C392.923 133.147 392.956 133.884 392.983 134.634L393.003 135.28C393.053 136.92 393.073 138.824 393.079 142.574L393.083 145.06V149.427C393.091 151.858 393.065 154.29 393.006 156.72L392.986 157.367C392.959 158.117 392.926 158.854 392.886 159.74C392.719 163.29 392.153 165.707 391.333 167.834C390.498 170.06 389.186 172.076 387.489 173.74C385.823 175.435 383.807 176.746 381.583 177.584C379.459 178.407 377.039 178.967 373.493 179.134C372.702 179.171 371.911 179.204 371.119 179.234L370.473 179.254C368.829 179.3 366.926 179.324 363.176 179.33L360.689 179.334H356.326C353.894 179.342 351.461 179.316 349.029 179.257L348.383 179.237C347.591 179.207 346.8 179.173 346.009 179.134C342.463 178.967 340.043 178.407 337.916 177.584C335.692 176.748 333.677 175.436 332.013 173.74C330.316 172.075 329.003 170.059 328.166 167.834C327.343 165.71 326.783 163.29 326.616 159.74C326.579 158.949 326.546 158.158 326.516 157.367L326.499 156.72C326.438 154.29 326.41 151.858 326.416 149.427V142.574C326.407 140.142 326.431 137.711 326.489 135.28L326.513 134.634C326.539 133.884 326.573 133.147 326.613 132.26C326.779 128.71 327.339 126.294 328.163 124.167C329 121.94 330.315 119.924 332.016 118.26C333.68 116.565 335.693 115.254 337.916 114.417C340.043 113.594 342.459 113.034 346.009 112.867C346.896 112.827 347.636 112.794 348.383 112.767L349.029 112.747C351.46 112.688 353.891 112.662 356.323 112.67L363.176 112.667ZM359.749 129.334C355.329 129.334 351.09 131.09 347.964 134.215C344.839 137.341 343.083 141.58 343.083 146C343.083 150.421 344.839 154.66 347.964 157.785C351.09 160.911 355.329 162.667 359.749 162.667C364.17 162.667 368.409 160.911 371.534 157.785C374.66 154.66 376.416 150.421 376.416 146C376.416 141.58 374.66 137.341 371.534 134.215C368.409 131.09 364.17 129.334 359.749 129.334ZM359.749 136C361.063 136 362.363 136.259 363.576 136.761C364.79 137.263 365.892 138 366.821 138.928C367.75 139.857 368.486 140.959 368.989 142.172C369.492 143.385 369.751 144.685 369.751 145.999C369.751 147.312 369.493 148.612 368.99 149.826C368.488 151.039 367.752 152.141 366.823 153.07C365.895 153.999 364.793 154.736 363.579 155.238C362.366 155.741 361.066 156 359.753 156C357.1 156 354.557 154.947 352.682 153.071C350.806 151.196 349.753 148.652 349.753 146C349.753 143.348 350.806 140.805 352.682 138.929C354.557 137.054 357.1 136 359.753 136M377.253 124.334C376.148 124.334 375.088 124.773 374.306 125.554C373.525 126.335 373.086 127.395 373.086 128.5C373.086 129.605 373.525 130.665 374.306 131.447C375.088 132.228 376.148 132.667 377.253 132.667C378.358 132.667 379.418 132.228 380.199 131.447C380.98 130.665 381.419 129.605 381.419 128.5C381.419 127.395 380.98 126.335 380.199 125.554C379.418 124.773 378.358 124.334 377.253 124.334Z" fill="black"/>
</svg>
