<svg width="351" height="291" viewBox="0 0 351 291" fill="none" xmlns="http://www.w3.org/2000/svg">
<rect x="1" y="1" width="349" height="289" rx="29" fill="white"/>
<rect x="1" y="1" width="349" height="289" rx="29" stroke="#CFCFCF" stroke-width="2"/>
<rect x="12" y="239" width="40" height="40" rx="20" fill="white"/>
<path d="M40.6421 252C40.6421 251.172 39.9706 250.5 39.1421 250.5L25.6421 250.5C24.8137 250.5 24.1421 251.172 24.1421 252C24.1421 252.828 24.8137 253.5 25.6421 253.5H37.6421V265.5C37.6421 266.328 38.3137 267 39.1421 267C39.9706 267 40.6421 266.328 40.6421 265.5L40.6421 252ZM26.0607 267.203L40.2028 253.061L38.0815 250.939L23.9393 265.081L26.0607 267.203Z" fill="black"/>
<path d="M179.427 112.667C183.177 112.677 185.08 112.697 186.724 112.744L187.37 112.767C188.117 112.794 188.854 112.827 189.744 112.867C193.29 113.034 195.71 113.594 197.834 114.417C200.034 115.264 201.887 116.41 203.74 118.26C205.435 119.927 206.747 121.942 207.584 124.167C208.407 126.29 208.967 128.71 209.134 132.26C209.174 133.147 209.207 133.884 209.234 134.634L209.254 135.28C209.304 136.92 209.324 138.824 209.33 142.574L209.334 145.06V149.427C209.342 151.858 209.316 154.29 209.257 156.72L209.237 157.367C209.21 158.117 209.177 158.854 209.137 159.74C208.97 163.29 208.404 165.707 207.584 167.834C206.749 170.06 205.437 172.076 203.74 173.74C202.074 175.435 200.058 176.746 197.834 177.584C195.71 178.407 193.29 178.967 189.744 179.134C188.953 179.171 188.162 179.204 187.37 179.234L186.724 179.254C185.08 179.3 183.177 179.324 179.427 179.33L176.94 179.334H172.577C170.145 179.342 167.712 179.316 165.28 179.257L164.634 179.237C163.842 179.207 163.051 179.173 162.26 179.134C158.714 178.967 156.294 178.407 154.167 177.584C151.943 176.748 149.928 175.436 148.264 173.74C146.567 172.075 145.254 170.059 144.417 167.834C143.594 165.71 143.034 163.29 142.867 159.74C142.83 158.949 142.796 158.158 142.767 157.367L142.75 156.72C142.689 154.29 142.661 151.858 142.667 149.427V142.574C142.658 140.142 142.682 137.711 142.74 135.28L142.764 134.634C142.79 133.884 142.824 133.147 142.864 132.26C143.03 128.71 143.59 126.294 144.414 124.167C145.251 121.94 146.566 119.924 148.267 118.26C149.931 116.565 151.944 115.254 154.167 114.417C156.294 113.594 158.71 113.034 162.26 112.867C163.147 112.827 163.887 112.794 164.634 112.767L165.28 112.747C167.711 112.688 170.142 112.662 172.574 112.67L179.427 112.667ZM176 129.334C171.58 129.334 167.341 131.09 164.215 134.215C161.09 137.341 159.334 141.58 159.334 146C159.334 150.421 161.09 154.66 164.215 157.785C167.341 160.911 171.58 162.667 176 162.667C180.421 162.667 184.66 160.911 187.785 157.785C190.911 154.66 192.667 150.421 192.667 146C192.667 141.58 190.911 137.341 187.785 134.215C184.66 131.09 180.421 129.334 176 129.334ZM176 136C177.314 136 178.614 136.259 179.827 136.761C181.041 137.263 182.143 138 183.072 138.928C184.001 139.857 184.737 140.959 185.24 142.172C185.743 143.385 186.002 144.685 186.002 145.999C186.002 147.312 185.744 148.612 185.241 149.826C184.739 151.039 184.003 152.141 183.074 153.07C182.146 153.999 181.044 154.736 179.83 155.238C178.617 155.741 177.317 156 176.004 156C173.351 156 170.808 154.947 168.933 153.071C167.057 151.196 166.004 148.652 166.004 146C166.004 143.348 167.057 140.805 168.933 138.929C170.808 137.054 173.351 136 176.004 136M193.504 124.334C192.399 124.334 191.339 124.773 190.557 125.554C189.776 126.335 189.337 127.395 189.337 128.5C189.337 129.605 189.776 130.665 190.557 131.447C191.339 132.228 192.399 132.667 193.504 132.667C194.609 132.667 195.669 132.228 196.45 131.447C197.231 130.665 197.67 129.605 197.67 128.5C197.67 127.395 197.231 126.335 196.45 125.554C195.669 124.773 194.609 124.334 193.504 124.334Z" fill="black"/>
</svg>
