<svg width="71" height="71" viewBox="0 0 71 71" fill="none" xmlns="http://www.w3.org/2000/svg">
<rect x="1" y="1" width="69" height="69" rx="34.5" fill="white"/>
<rect x="1" y="1" width="69" height="69" rx="34.5" stroke="#6C6C6C" stroke-width="2" stroke-linecap="square" stroke-linejoin="round" stroke-dasharray="12 12"/>
<path d="M24.4119 26.5455H28.571V38.6136C28.5653 39.7443 28.2955 40.733 27.7614 41.5795C27.2273 42.4205 26.4886 43.0739 25.5455 43.5398C24.608 44.0057 23.5227 44.2386 22.2898 44.2386C21.1989 44.2386 20.2074 44.0483 19.3153 43.6676C18.429 43.2869 17.7216 42.696 17.1932 41.8949C16.6705 41.0937 16.4119 40.0682 16.4176 38.8182H20.6193C20.6364 39.267 20.7216 39.6506 20.875 39.9688C21.0341 40.2812 21.2528 40.517 21.5312 40.6761C21.8097 40.8352 22.142 40.9148 22.5284 40.9148C22.9318 40.9148 23.2727 40.8295 23.5511 40.6591C23.8295 40.483 24.0398 40.2244 24.1818 39.8835C24.3295 39.5426 24.4063 39.1193 24.4119 38.6136V26.5455ZM35.4382 26.5455V44H31.2195V26.5455H35.4382ZM41.8622 44H37.3281L43.2173 26.5455H48.8338L54.723 44H50.1889L46.0895 30.9432H45.9531L41.8622 44ZM41.2571 37.1307H50.7344V40.3352H41.2571V37.1307Z" fill="black"/>
</svg>
