<svg width="93" height="78" viewBox="0 0 93 78" fill="none" xmlns="http://www.w3.org/2000/svg">
<path d="M24.1406 45.5859C24.1406 46.9922 24.0312 48.2734 23.8125 49.4297C23.6094 50.5703 23.2344 51.6719 22.6875 52.7344C22.1562 53.7969 21.4531 54.6875 20.5781 55.4062C19.7188 56.125 18.5938 56.6953 17.2031 57.1172C15.8125 57.5547 14.2031 57.7734 12.375 57.7734C10.5469 57.7734 8.9375 57.5547 7.54688 57.1172C6.15625 56.6953 5.03125 56.125 4.17188 55.4062C3.3125 54.6875 2.60938 53.7969 2.0625 52.7344C1.53125 51.6719 1.15625 50.5703 0.9375 49.4297C0.734375 48.2734 0.632812 46.9922 0.632812 45.5859V42.7031H8.29688V45.5859C8.29688 47.3203 8.5625 48.6094 9.09375 49.4531C9.625 50.2969 10.5625 50.7188 11.9062 50.7188C13.25 50.7188 14.1875 50.2969 14.7188 49.4531C15.25 48.6094 15.5156 47.3203 15.5156 45.5859V22.6875H24.1406V45.5859ZM28.5469 22.6875H37.1953V57H28.5469V22.6875ZM61.6641 49.8516H49.8984L47.6953 57H39.0469L51.4688 22.6875H60.1172L72.4922 57H63.8672L61.6641 49.8516ZM51.8672 43.2656H59.7422L55.8516 30.6094H55.7578L51.8672 43.2656Z" fill="#212121"/>
</svg>
