<svg width="73" height="36" viewBox="0 0 73 36" fill="none" xmlns="http://www.w3.org/2000/svg">
<path d="M24.1406 23.5859C24.1406 24.9922 24.0312 26.2734 23.8125 27.4297C23.6094 28.5703 23.2344 29.6719 22.6875 30.7344C22.1562 31.7969 21.4531 32.6875 20.5781 33.4062C19.7188 34.125 18.5938 34.6953 17.2031 35.1172C15.8125 35.5547 14.2031 35.7734 12.375 35.7734C10.5469 35.7734 8.9375 35.5547 7.54688 35.1172C6.15625 34.6953 5.03125 34.125 4.17188 33.4062C3.3125 32.6875 2.60938 31.7969 2.0625 30.7344C1.53125 29.6719 1.15625 28.5703 0.9375 27.4297C0.734375 26.2734 0.632812 24.9922 0.632812 23.5859V20.7031H8.29688V23.5859C8.29688 25.3203 8.5625 26.6094 9.09375 27.4531C9.625 28.2969 10.5625 28.7188 11.9062 28.7188C13.25 28.7188 14.1875 28.2969 14.7188 27.4531C15.25 26.6094 15.5156 25.3203 15.5156 23.5859V0.6875H24.1406V23.5859ZM28.5469 0.6875H37.1953V35H28.5469V0.6875ZM61.6641 27.8516H49.8984L47.6953 35H39.0469L51.4688 0.6875H60.1172L72.4922 35H63.8672L61.6641 27.8516ZM51.8672 21.2656H59.7422L55.8516 8.60938H55.7578L51.8672 21.2656Z" fill="#212121"/>
</svg>
