<svg width="616" height="136" viewBox="0 0 616 136" fill="none" xmlns="http://www.w3.org/2000/svg">
<rect x="188.27" y="43.2001" width="33.7872" height="92.8" fill="#FFA92C"/>
<path d="M35.2434 101.984V7.09844L7.85768 27.4652C3.15838 30.96 0.390625 36.4589 0.390625 42.3003V117.258C0.390625 127.484 8.71281 135.773 18.9787 135.773H73.0063C76.8571 135.773 80.6129 134.581 83.7547 132.364L126.79 101.984H35.2434Z" fill="white"/>
<path d="M74.5057 0H44.2305V92.679H132.786V0H102.51V62.5395H74.5057V0Z" fill="#22B573"/>
<path d="M144.432 0H178.491H237.58C253.797 0 266.943 13.0733 266.943 29.2V96.6325C266.943 100.278 265.276 103.726 262.414 106.003L232.753 129.6V32.8H178.491V62.5272C178.491 66.1185 176.874 69.5211 174.083 71.8004L144.432 92.4186V0Z" fill="white"/>
<path d="M329.955 115V98.544H377.963V115H329.955ZM329.955 36.256V19.8H377.963V36.256H329.955ZM329.955 72.568V56.384H375.243V72.568H329.955ZM317.443 19.8H336.211V115H317.443V19.8ZM406.243 93.376L408.555 78.008H454.251L456.563 93.376H406.243ZM431.131 50.672L416.851 83.448L417.259 87.8L404.747 115H382.851L431.131 14.224L479.411 115H457.379L445.139 88.616L445.411 83.72L431.131 50.672ZM466.576 37.344V19.8H537.296V37.344H511.592V115H492.144V37.344H466.576ZM552.562 83.04C554.556 86.576 556.732 89.6587 559.09 92.288C561.538 94.9173 564.212 96.9573 567.114 98.408C570.015 99.8587 573.143 100.584 576.498 100.584C580.396 100.584 583.57 99.5867 586.018 97.592C588.466 95.5973 589.69 92.8773 589.69 89.432C589.69 86.44 588.919 84.0373 587.378 82.224C585.927 80.4107 583.706 78.824 580.714 77.464C577.812 76.0133 574.231 74.472 569.97 72.84C567.703 72.024 565.074 70.936 562.082 69.576C559.18 68.1253 556.415 66.312 553.786 64.136C551.156 61.8693 548.98 59.1493 547.258 55.976C545.535 52.712 544.674 48.8133 544.674 44.28C544.674 38.84 546.034 34.1707 548.754 30.272C551.564 26.2827 555.327 23.2453 560.042 21.16C564.847 18.984 570.196 17.896 576.09 17.896C582.164 17.896 587.378 18.9387 591.73 21.024C596.172 23.0187 599.844 25.6027 602.746 28.776C605.738 31.8587 608.05 35.0773 609.682 38.432L594.45 46.864C593.18 44.5973 591.639 42.5573 589.826 40.744C588.103 38.84 586.108 37.344 583.842 36.256C581.575 35.0773 578.991 34.488 576.09 34.488C572.282 34.488 569.426 35.3947 567.522 37.208C565.618 38.9307 564.666 40.9707 564.666 43.328C564.666 45.6853 565.436 47.7707 566.978 49.584C568.519 51.3067 570.876 52.984 574.05 54.616C577.223 56.1573 581.212 57.744 586.018 59.376C589.1 60.464 592.047 61.824 594.858 63.456C597.759 65.088 600.343 67.0827 602.61 69.44C604.967 71.7067 606.78 74.4267 608.05 77.6C609.41 80.6827 610.09 84.264 610.09 88.344C610.09 92.968 609.183 97.0933 607.37 100.72C605.556 104.347 603.063 107.429 599.89 109.968C596.716 112.416 593.135 114.275 589.146 115.544C585.247 116.904 581.122 117.584 576.77 117.584C570.967 117.584 565.527 116.496 560.45 114.32C555.463 112.053 551.111 109.016 547.394 105.208C543.676 101.4 540.775 97.2747 538.69 92.832L552.562 83.04Z" fill="#EFEFEF"/>
</svg>
