<svg width="80" height="80" viewBox="0 0 80 80" fill="none" xmlns="http://www.w3.org/2000/svg">
<path d="M50.8251 53.7001L56.4251 48.1001C57.1793 47.3552 58.1336 46.8453 59.1721 46.6323C60.2105 46.4193 61.2885 46.5123 62.2751 46.9001L69.1001 49.6251C70.0971 50.0298 70.952 50.7206 71.5571 51.6104C72.1621 52.5001 72.4902 53.5491 72.5001 54.6251V67.1251C72.4943 67.857 72.3404 68.5802 72.0478 69.2512C71.7551 69.9221 71.3297 70.5268 70.7971 71.029C70.2646 71.5312 69.6359 71.9204 68.949 72.1732C68.2621 72.426 67.5311 72.5372 66.8001 72.5001C18.9751 69.5251 9.32509 29.0251 7.50009 13.5251C7.41537 12.7639 7.49278 11.9935 7.72721 11.2644C7.96164 10.5353 8.3478 9.86408 8.86026 9.29494C9.37272 8.7258 9.99988 8.27161 10.7005 7.96226C11.4011 7.65291 12.1592 7.4954 12.9251 7.5001H25.0001C26.0776 7.50329 27.1295 7.82877 28.0206 8.43468C28.9116 9.04058 29.601 9.8992 30.0001 10.9001L32.7251 17.7251C33.1257 18.7078 33.2279 19.7867 33.019 20.8271C32.81 21.8676 32.2991 22.8233 31.5501 23.5751L25.9501 29.1751C25.9501 29.1751 29.1751 51.0001 50.8251 53.7001Z" fill="#212121"/>
</svg>
