<svg width="351" height="291" viewBox="0 0 351 291" fill="none" xmlns="http://www.w3.org/2000/svg">
<rect x="1" y="1" width="349" height="289" rx="29" fill="white"/>
<rect x="1" y="1" width="349" height="289" rx="29" stroke="#CFCFCF" stroke-width="2"/>
<rect x="12" y="239" width="40" height="40" rx="20" fill="white"/>
<path d="M40.6421 252C40.6421 251.172 39.9706 250.5 39.1421 250.5L25.6421 250.5C24.8137 250.5 24.1421 251.172 24.1421 252C24.1421 252.828 24.8137 253.5 25.6421 253.5H37.6421V265.5C37.6421 266.328 38.3137 267 39.1421 267C39.9706 267 40.6421 266.328 40.6421 265.5L40.6421 252ZM26.0607 267.203L40.2028 253.061L38.0815 250.939L23.9393 265.081L26.0607 267.203Z" fill="black"/>
<path d="M186.825 159.7L192.425 154.1C193.179 153.355 194.134 152.845 195.172 152.632C196.211 152.419 197.288 152.512 198.275 152.9L205.1 155.625C206.097 156.03 206.952 156.721 207.557 157.61C208.162 158.5 208.49 159.549 208.5 160.625V173.125C208.494 173.857 208.34 174.58 208.048 175.251C207.755 175.922 207.33 176.527 206.797 177.029C206.265 177.531 205.636 177.92 204.949 178.173C204.262 178.426 203.531 178.537 202.8 178.5C154.975 175.525 145.325 135.025 143.5 119.525C143.415 118.764 143.493 117.993 143.727 117.264C143.962 116.535 144.348 115.864 144.86 115.295C145.373 114.726 146 114.272 146.7 113.962C147.401 113.653 148.159 113.495 148.925 113.5H161C162.078 113.503 163.13 113.829 164.021 114.435C164.912 115.041 165.601 115.899 166 116.9L168.725 123.725C169.126 124.708 169.228 125.787 169.019 126.827C168.81 127.868 168.299 128.823 167.55 129.575L161.95 135.175C161.95 135.175 165.175 157 186.825 159.7Z" fill="black"/>
</svg>
