<svg width="585" height="74" viewBox="0 0 585 74" fill="none" xmlns="http://www.w3.org/2000/svg">
<rect x="101.143" y="23.2805" width="18.189" height="50.01" fill="#459F86"/>
<path d="M18.7631 54.9586V3.82471L4.0203 14.8004C1.49048 16.6837 0.000488281 19.6471 0.000488281 22.795V63.19C0.000488281 68.7003 4.48065 73.1673 10.0072 73.1673H39.0924C41.1654 73.1673 43.1873 72.5254 44.8786 71.3302L68.0462 54.9586H18.7631Z" fill="#212121"/>
<path d="M39.8994 0H23.6011V49.9448H71.2738V0H54.9754V33.7026H39.8994V0Z" fill="#459F86"/>
<path d="M77.542 0H95.8777H127.687C136.417 0 143.495 7.0452 143.495 15.7359V52.0753C143.495 54.0398 142.597 55.8978 141.057 57.125L125.089 69.8415V17.6759H95.8777V33.6959C95.8777 35.6313 95.0069 37.4649 93.5046 38.6933L77.542 49.8044V0Z" fill="#212121"/>
<path d="M192.407 63.4769C177.402 63.4769 168.006 53.4378 168.006 36.7894C168.006 20.1767 177.473 10.1377 192.407 10.1377C204.804 10.1377 214.236 17.9974 215.057 29.537H204.554C203.553 23.2134 198.695 19.0692 192.407 19.0692C184.261 19.0692 179.01 25.8929 179.01 36.7537C179.01 47.7574 184.19 54.5453 192.443 54.5453C198.838 54.5453 203.446 50.7941 204.59 44.6849H215.093C213.878 56.1887 205.054 63.4769 192.407 63.4769ZM242.837 10.1377C258.092 10.1377 267.702 20.3911 267.702 36.8251C267.702 53.2235 258.092 63.4769 242.837 63.4769C227.546 63.4769 217.971 53.2235 217.971 36.8251C217.971 20.3911 227.546 10.1377 242.837 10.1377ZM242.837 19.1407C234.405 19.1407 228.975 26.0001 228.975 36.8251C228.975 47.6145 234.369 54.4382 242.837 54.4382C251.268 54.4382 256.663 47.6145 256.663 36.8251C256.663 26.0001 251.268 19.1407 242.837 19.1407ZM327.063 62.5837H317.453V27.7864H317.167L303.162 62.0836H296.374L282.37 27.7864H282.084V62.5837H272.474V11.0308H284.978L299.626 47.5787H299.911L314.559 11.0308H327.063V62.5837ZM388.032 62.5837H378.422V27.7864H378.136L364.131 62.0836H357.343L343.339 27.7864H343.053V62.5837H333.443V11.0308H345.947L360.594 47.5787H360.88L375.528 11.0308H388.032V62.5837ZM428.566 53.6522V62.5837H394.412V11.0308H428.566V19.9266H405.201V32.3594H427.244V40.6478H405.201V53.6522H428.566ZM444.948 19.4622V35.8963H454.237C459.668 35.8963 462.847 32.7881 462.847 27.6792C462.847 22.6776 459.489 19.4622 454.13 19.4622H444.948ZM444.948 43.7203V62.5837H434.159V11.0308H455.273C467.134 11.0308 473.922 17.2829 473.922 27.4649C473.922 34.0742 470.493 39.7904 464.562 42.1126L475.423 62.5837H463.204L453.594 43.7203H444.948ZM501.63 63.4769C486.625 63.4769 477.229 53.4378 477.229 36.7894C477.229 20.1767 486.697 10.1377 501.63 10.1377C514.027 10.1377 523.459 17.9974 524.281 29.537H513.777C512.777 23.2134 507.918 19.0692 501.63 19.0692C493.485 19.0692 488.233 25.8929 488.233 36.7537C488.233 47.7574 493.413 54.5453 501.666 54.5453C508.061 54.5453 512.67 50.7941 513.813 44.6849H524.316C523.102 56.1887 514.277 63.4769 501.63 63.4769ZM562.956 53.6522V62.5837H528.802V11.0308H562.956V19.9266H539.591V32.3594H561.634V40.6478H539.591V53.6522H562.956ZM574.445 63.0125C571.229 63.0125 568.693 60.4402 568.693 57.2605C568.693 54.0452 571.229 51.5086 574.445 51.5086C577.624 51.5086 580.196 54.0452 580.196 57.2605C580.196 60.4402 577.624 63.0125 574.445 63.0125Z" fill="#212121"/>
</svg>
