<svg width="982" height="124" viewBox="0 0 982 124" fill="none" xmlns="http://www.w3.org/2000/svg">
<rect x="170.029" y="39.1365" width="30.5771" height="84.0707" fill="#459F86"/>
<path d="M31.5419 92.3899V6.42969L6.7581 24.8806C2.50528 28.0467 0.000488281 33.0283 0.000488281 38.3203V106.227C0.000488281 115.491 7.53199 123 16.8226 123H65.7171C69.202 123 72.6009 121.921 75.4442 119.912L114.391 92.3899H31.5419Z" fill="#212121"/>
<path d="M67.0741 0H39.6753V83.9611H119.817V0H92.4181V56.6567H67.0741V0Z" fill="#459F86"/>
<path d="M130.354 0H161.178H214.652C229.328 0 241.225 11.8435 241.225 26.4533V87.5427C241.225 90.8452 239.717 93.9686 237.127 96.0316L210.284 117.409V29.7146H161.178V56.6455C161.178 59.899 159.714 62.9815 157.188 65.0465L130.354 83.7251V0Z" fill="#212121"/>
<path d="M322.398 106.501C297.173 106.501 281.378 89.625 281.378 61.6377C281.378 33.7105 297.294 16.834 322.398 16.834C343.238 16.834 359.094 30.0469 360.475 49.4458H342.818C341.136 38.8154 332.968 31.8486 322.398 31.8486C308.705 31.8486 299.876 43.3198 299.876 61.5776C299.876 80.0757 308.585 91.4868 322.458 91.4868C333.209 91.4868 340.956 85.1807 342.878 74.9106H360.535C358.493 94.2495 343.659 106.501 322.398 106.501ZM407.174 16.834C432.819 16.834 448.975 34.0708 448.975 61.6978C448.975 89.2646 432.819 106.501 407.174 106.501C381.469 106.501 365.374 89.2646 365.374 61.6978C365.374 34.0708 381.469 16.834 407.174 16.834ZM407.174 31.9688C393 31.9688 383.872 43.5 383.872 61.6978C383.872 79.8355 392.94 91.3066 407.174 91.3066C421.348 91.3066 430.417 79.8355 430.417 61.6978C430.417 43.5 421.348 31.9688 407.174 31.9688ZM548.766 105H532.61V46.5029H532.13L508.587 104.159H497.176L473.633 46.5029H473.152V105H456.997V18.3355H478.017L502.641 79.7754H503.122L527.746 18.3355H548.766V105ZM651.26 105H635.104V46.5029H634.623L611.08 104.159H599.669L576.126 46.5029H575.646V105H559.49V18.3355H580.511L605.135 79.7754H605.615L630.239 18.3355H651.26V105ZM719.4 89.9854V105H661.984V18.3355H719.4V33.29H680.121V54.1904H717.178V68.124H680.121V89.9854H719.4ZM746.94 32.5093V60.1362H762.555C771.684 60.1362 777.03 54.9111 777.03 46.3228C777.03 37.9146 771.384 32.5093 762.375 32.5093H746.94ZM746.94 73.2891V105H728.802V18.3355H764.297C784.237 18.3355 795.648 28.8457 795.648 45.9624C795.648 57.0732 789.882 66.6826 779.912 70.5864L798.17 105H777.63L761.474 73.2891H746.94ZM842.227 106.501C817.002 106.501 801.207 89.625 801.207 61.6377C801.207 33.7105 817.122 16.834 842.227 16.834C863.067 16.834 878.923 30.0469 880.304 49.4458H862.647C860.965 38.8154 852.797 31.8486 842.227 31.8486C828.533 31.8486 819.705 43.3198 819.705 61.5776C819.705 80.0757 828.413 91.4868 842.287 91.4868C853.037 91.4868 860.785 85.1807 862.707 74.9106H880.364C878.322 94.2495 863.487 106.501 842.227 106.501ZM945.321 89.9854V105H887.905V18.3355H945.321V33.29H906.043V54.1904H943.099V68.124H906.043V89.9854H945.321ZM964.633 105.721C959.228 105.721 954.964 101.396 954.964 96.0513C954.964 90.646 959.228 86.3818 964.633 86.3818C969.979 86.3818 974.303 90.646 974.303 96.0513C974.303 101.396 969.979 105.721 964.633 105.721Z" fill="#212121"/>
</svg>
