<svg width="351" height="291" viewBox="0 0 351 291" fill="none" xmlns="http://www.w3.org/2000/svg">
<rect x="1" y="1" width="349" height="289" rx="29" fill="white"/>
<rect x="1" y="1" width="349" height="289" rx="29" stroke="#CFCFCF" stroke-width="2"/>
<rect x="12" y="239" width="40" height="40" rx="20" fill="white"/>
<path d="M40.6421 252C40.6421 251.172 39.9706 250.5 39.1421 250.5L25.6421 250.5C24.8137 250.5 24.1421 251.172 24.1421 252C24.1421 252.828 24.8137 253.5 25.6421 253.5H37.6421V265.5C37.6421 266.328 38.3137 267 39.1421 267C39.9706 267 40.6421 266.328 40.6421 265.5L40.6421 252ZM26.0607 267.203L40.2028 253.061L38.0815 250.939L23.9393 265.081L26.0607 267.203Z" fill="black"/>
<g clip-path="url(#clip0_161_104)">
<path d="M216 146C216 156.609 211.786 166.783 204.284 174.284C196.783 181.786 186.609 186 176 186C165.391 186 155.217 181.786 147.716 174.284C140.214 166.783 136 156.609 136 146C136 135.391 140.214 125.217 147.716 117.716C155.217 110.214 165.391 106 176 106C186.609 106 196.783 110.214 204.284 117.716C211.786 125.217 216 135.391 216 146ZM177.435 135.53C173.542 137.15 165.765 140.5 154.105 145.58C152.215 146.33 151.223 147.067 151.13 147.79C150.98 149.005 152.505 149.485 154.58 150.14L155.455 150.415C157.495 151.08 160.245 151.855 161.67 151.885C162.97 151.918 164.417 151.385 166.01 150.285C176.907 142.932 182.53 139.215 182.88 139.135C183.13 139.075 183.48 139.005 183.71 139.215C183.94 139.425 183.92 139.815 183.895 139.92C183.745 140.565 177.76 146.125 174.665 149.005C173.7 149.905 173.015 150.54 172.875 150.685C172.567 151 172.253 151.31 171.935 151.615C170.035 153.445 168.615 154.815 172.01 157.055C173.645 158.135 174.955 159.02 176.26 159.91C177.68 160.88 179.1 161.845 180.94 163.055C181.407 163.362 181.857 163.673 182.29 163.99C183.945 165.17 185.44 166.23 187.275 166.06C188.345 165.96 189.45 164.96 190.01 161.96C191.335 154.875 193.94 139.53 194.54 133.205C194.578 132.679 194.556 132.151 194.475 131.63C194.427 131.21 194.223 130.823 193.905 130.545C193.449 130.232 192.908 130.07 192.355 130.08C190.855 130.105 188.54 130.91 177.435 135.53Z" fill="black"/>
</g>
<defs>
<clipPath id="clip0_161_104">
<rect width="80" height="80" fill="white" transform="translate(136 106)"/>
</clipPath>
</defs>
</svg>
