<svg width="720" height="291" viewBox="0 0 720 291" fill="none" xmlns="http://www.w3.org/2000/svg">
<rect x="1" y="1" width="718" height="289" rx="29" fill="white"/>
<rect x="1" y="1" width="718" height="289" rx="29" stroke="#CFCFCF" stroke-width="2"/>
<rect x="12" y="239" width="40" height="40" rx="20" fill="white"/>
<path d="M40.6421 252C40.6421 251.172 39.9706 250.5 39.1421 250.5L25.6421 250.5C24.8137 250.5 24.1421 251.172 24.1421 252C24.1421 252.828 24.8137 253.5 25.6421 253.5H37.6421V265.5C37.6421 266.328 38.3137 267 39.1421 267C39.9706 267 40.6421 266.328 40.6421 265.5L40.6421 252ZM26.0607 267.203L40.2028 253.061L38.0815 250.939L23.9393 265.081L26.0607 267.203Z" fill="black"/>
<g clip-path="url(#clip0_369_3245)">
<path d="M400 146C400 156.609 395.786 166.783 388.284 174.284C380.783 181.786 370.609 186 360 186C349.391 186 339.217 181.786 331.716 174.284C324.214 166.783 320 156.609 320 146C320 135.391 324.214 125.217 331.716 117.716C339.217 110.214 349.391 106 360 106C370.609 106 380.783 110.214 388.284 117.716C395.786 125.217 400 135.391 400 146ZM361.435 135.53C357.542 137.15 349.765 140.5 338.105 145.58C336.215 146.33 335.223 147.067 335.13 147.79C334.98 149.005 336.505 149.485 338.58 150.14L339.455 150.415C341.495 151.08 344.245 151.855 345.67 151.885C346.97 151.918 348.417 151.385 350.01 150.285C360.907 142.932 366.53 139.215 366.88 139.135C367.13 139.075 367.48 139.005 367.71 139.215C367.94 139.425 367.92 139.815 367.895 139.92C367.745 140.565 361.76 146.125 358.665 149.005C357.7 149.905 357.015 150.54 356.875 150.685C356.567 151 356.253 151.31 355.935 151.615C354.035 153.445 352.615 154.815 356.01 157.055C357.645 158.135 358.955 159.02 360.26 159.91C361.68 160.88 363.1 161.845 364.94 163.055C365.407 163.362 365.857 163.673 366.29 163.99C367.945 165.17 369.44 166.23 371.275 166.06C372.345 165.96 373.45 164.96 374.01 161.96C375.335 154.875 377.94 139.53 378.54 133.205C378.578 132.679 378.556 132.151 378.475 131.63C378.427 131.21 378.223 130.823 377.905 130.545C377.449 130.232 376.908 130.07 376.355 130.08C374.855 130.105 372.54 130.91 361.435 135.53Z" fill="black"/>
</g>
<defs>
<clipPath id="clip0_369_3245">
<rect width="80" height="80" fill="white" transform="translate(320 106)"/>
</clipPath>
</defs>
</svg>
