<svg width="80" height="80" viewBox="0 0 80 80" fill="none" xmlns="http://www.w3.org/2000/svg">
<g clip-path="url(#clip0_684_4040)">
<path d="M39.5033 6.6665C57.9133 6.6665 72.8366 21.5898 72.8366 39.9998C72.8366 58.4098 57.9133 73.3332 39.5033 73.3332C33.6125 73.3433 27.8252 71.7843 22.7366 68.8165L6.18331 73.3332L10.69 56.7732C7.71983 51.6829 6.15965 45.8932 6.16997 39.9998C6.16997 21.5898 21.0933 6.6665 39.5033 6.6665ZM28.1433 24.3332L27.4766 24.3598C27.0456 24.3895 26.6245 24.5027 26.2366 24.6932C25.8752 24.8982 25.5452 25.1542 25.2566 25.4532C24.8566 25.8298 24.63 26.1565 24.3866 26.4732C23.1537 28.0762 22.4899 30.0442 22.5 32.0665C22.5066 33.6998 22.9333 35.2898 23.6 36.7765C24.9633 39.7832 27.2066 42.9665 30.1666 45.9165C30.88 46.6265 31.58 47.3398 32.3333 48.0032C36.0114 51.2412 40.3942 53.5764 45.1333 54.8232L47.0266 55.1132C47.6433 55.1465 48.26 55.0998 48.88 55.0698C49.8506 55.0187 50.7983 54.7558 51.6566 54.2998C52.0928 54.0743 52.5188 53.8296 52.9333 53.5665C52.9333 53.5665 53.0744 53.4709 53.35 53.2665C53.8 52.9332 54.0766 52.6965 54.45 52.3065C54.73 52.0176 54.9633 51.6821 55.15 51.2998C55.41 50.7565 55.67 49.7198 55.7766 48.8565C55.8566 48.1965 55.8333 47.8365 55.8233 47.6132C55.81 47.2565 55.5133 46.8865 55.19 46.7298L53.25 45.8598C53.25 45.8598 50.35 44.5965 48.5766 43.7898C48.391 43.709 48.1922 43.6627 47.99 43.6532C47.7619 43.6293 47.5313 43.6548 47.3139 43.7278C47.0965 43.8008 46.8974 43.9198 46.73 44.0765C46.7133 44.0698 46.49 44.2598 44.08 47.1798C43.9416 47.3657 43.7511 47.5062 43.5326 47.5834C43.3142 47.6605 43.0777 47.6709 42.8533 47.6132C42.6361 47.5553 42.4233 47.4817 42.2166 47.3932C41.8033 47.2198 41.66 47.1532 41.3766 47.0332C39.4629 46.1995 37.6914 45.0714 36.1266 43.6898C35.7066 43.3232 35.3166 42.9232 34.9166 42.5365C33.6053 41.2805 32.4625 39.8598 31.5166 38.3098L31.32 37.9932C31.1808 37.7792 31.0668 37.5499 30.98 37.3098C30.8533 36.8198 31.1833 36.4265 31.1833 36.4265C31.1833 36.4265 31.9933 35.5398 32.37 35.0598C32.7366 34.5932 33.0466 34.1398 33.2466 33.8165C33.64 33.1832 33.7633 32.5332 33.5566 32.0298C32.6233 29.7498 31.6589 27.4821 30.6633 25.2265C30.4666 24.7798 29.8833 24.4598 29.3533 24.3965C29.1733 24.3743 28.9933 24.3565 28.8133 24.3432C28.3657 24.3175 27.9169 24.322 27.47 24.3565L28.1433 24.3332Z" fill="black"/>
</g>
<defs>
<clipPath id="clip0_684_4040">
<rect width="80" height="80" fill="white"/>
</clipPath>
</defs>
</svg>
