<svg width="720" height="291" viewBox="0 0 720 291" fill="none" xmlns="http://www.w3.org/2000/svg">
<rect x="1" y="1" width="718" height="289" rx="29" fill="white"/>
<rect x="1" y="1" width="718" height="289" rx="29" stroke="#CFCFCF" stroke-width="2"/>
<rect x="12" y="239" width="40" height="40" rx="20" fill="white"/>
<path d="M40.6421 252C40.6421 251.172 39.9706 250.5 39.1421 250.5L25.6421 250.5C24.8137 250.5 24.1421 251.172 24.1421 252C24.1421 252.828 24.8137 253.5 25.6421 253.5H37.6421V265.5C37.6421 266.328 38.3137 267 39.1421 267C39.9706 267 40.6421 266.328 40.6421 265.5L40.6421 252ZM26.0607 267.203L40.2028 253.061L38.0815 250.939L23.9393 265.081L26.0607 267.203Z" fill="black"/>
<path d="M371.075 159.7L376.675 154.1C377.429 153.355 378.384 152.845 379.422 152.632C380.461 152.419 381.538 152.512 382.525 152.9L389.35 155.625C390.347 156.03 391.202 156.721 391.807 157.61C392.412 158.5 392.74 159.549 392.75 160.625V173.125C392.744 173.857 392.59 174.58 392.298 175.251C392.005 175.922 391.58 176.527 391.047 177.029C390.515 177.531 389.886 177.92 389.199 178.173C388.512 178.426 387.781 178.537 387.05 178.5C339.225 175.525 329.575 135.025 327.75 119.525C327.665 118.764 327.743 117.993 327.977 117.264C328.212 116.535 328.598 115.864 329.11 115.295C329.623 114.726 330.25 114.272 330.95 113.962C331.651 113.653 332.409 113.495 333.175 113.5H345.25C346.328 113.503 347.38 113.829 348.271 114.435C349.162 115.041 349.851 115.899 350.25 116.9L352.975 123.725C353.376 124.708 353.478 125.787 353.269 126.827C353.06 127.868 352.549 128.823 351.8 129.575L346.2 135.175C346.2 135.175 349.425 157 371.075 159.7Z" fill="black"/>
</svg>
